<svg version="1.2" xmlns="http://www.w3.org/2000/svg" viewBox="0 0 3508 2479" width="3508" height="2479">
	<style>
		tspan { white-space:pre } 
		.s0 { fill: none;stroke: #b59f5a;stroke-miterlimit:10;stroke-width: 8.3 } 
		.s1 { fill: none;stroke: #b49e59;stroke-miterlimit:10;stroke-width: 4.2 } 
		.s2 { fill: none;stroke: #b59f5b;stroke-linejoin: round;stroke-width: 2.5 } 
	</style>
	<rect width="3508" height="2479" id="Color Fill 1" style="fill: #ffffff"/>
	<g id="certificate-template">
		<g id="lines-and-border">
			<g id="frame">
				<path id="&lt;Path&gt;" class="s0" d="m271.63 2207.37v-1936.88h2964.28v1936.88z"/>
				<path id="&lt;Path&gt;" class="s1" d="m236.2 2242.8v-2007.74h3035.14v2007.74z"/>
				<g id="border">
					<path fill-rule="evenodd" class="s2" d="m3255.07 95.12c-36.14-33.42-72.61 10.82-72.16 62.88 0 20.5-5.2 39.1-13.7 52.6-7.28 11.69-18.86 21.86-33.11 21.8-25.91 0-46.92-33.3-46.92-74.4-0.52-25.89-6.61-46.53-21.71-62.9h-0.1c-36.14-33.4-72.53 10.84-72.1 62.9 0 20.51-5.2 39.11-13.7 52.61-7.27 11.69-18.86 21.86-33.11 21.8-25.91 0-46.92-33.3-46.92-74.4-0.52-25.89-6.61-46.53-21.71-62.9h-0.1c-36.19-33.42-72.6 10.82-72.13 62.89 0 20.51-5.2 39.11-13.7 52.61-7.26 11.66-18.87 21.86-33.11 21.8-25.91 0-46.92-33.3-46.92-74.4-0.52-25.89-6.61-46.53-21.71-62.9h-0.1c-36.19-33.41-72.59 10.82-72.12 62.89 0 20.51-5.21 39.11-13.71 52.61-7.29 11.7-18.92 21.9-33.21 21.8-25.81 0-46.82-33.3-46.82-74.4-0.52-25.89-6.61-46.53-21.71-62.9h-0.1c-36.19-33.4-72.59 10.83-72.12 62.9 0 20.5-5.2 39.11-13.71 52.61-7.29 11.7-18.91 21.9-33.21 21.79-25.81 0-46.82-33.3-46.82-74.4-0.48-25.87-6.71-46.43-21.71-62.89h-0.1c-36.14-33.42-72.59 10.82-72.15 62.88 0 20.5-5.2 39.1-13.71 52.6-7.3 11.72-18.88 21.89-33.21 21.8-25.81 0-46.82-33.3-46.82-74.4-0.48-25.87-6.71-46.43-21.7-62.9h-0.1c-36.17-33.4-72.53 10.84-72.1 62.9 0 20.5-5.2 39.1-13.71 52.6-7.3 11.72-18.88 21.89-33.21 21.8-25.81 0-46.81-33.3-46.81-74.4-0.48-25.87-6.72-46.43-21.71-62.9h-0.1c-36.23-33.4-72.59 10.82-72.13 62.9 0 20.5-5.2 39.1-13.7 52.6-7.32 11.73-18.86 21.87-33.22 21.8-25.81 0-46.81-33.3-46.81-74.4-0.48-25.87-6.72-46.43-21.71-62.9h-0.1c-36.22-33.4-72.59 10.82-72.13 62.9 0 20.5-5.2 39.1-13.7 52.6-7.32 11.73-18.86 21.87-33.22 21.8-25.8 0-46.81-33.3-46.81-74.4-0.48-25.87-6.71-46.43-21.71-62.9h-0.1c-36.22-33.4-72.59 10.82-72.13 62.9 0 20.5-5.2 39.1-13.7 52.6-7.32 11.73-18.85 21.84-33.21 21.8-25.81 0-46.82-33.3-46.82-74.4-0.48-25.87-6.71-46.43-21.71-62.9h-0.1c-36.24-33.4-72.59 10.82-72.13 62.9 0 20.5-5.2 39.1-13.7 52.6-7.32 11.73-18.85 21.84-33.21 21.8-25.81 0-46.82-33.3-46.82-74.4-0.48-25.87-6.71-46.43-21.71-62.9h-0.1c-36.24-33.4-72.58 10.82-72.12 62.9 0 20.5-5.21 39.1-13.71 52.6-7.32 11.73-18.85 21.84-33.21 21.8-25.81 0-46.82-33.3-46.82-74.4-0.48-25.87-6.71-46.43-21.71-62.9h-0.1c-36.27-33.4-72.55 10.82-72.12 62.9 0 20.5-5.21 39.1-13.71 52.6-7.28 11.73-18.88 21.84-33.21 21.8-25.91 0-46.82-33.3-46.82-74.4-0.76-27.74-7.28-50.36-26.01-66.6-36.43-26-67.86 17.06-67.92 66.6 0 20.5-5.2 39.1-13.71 52.6-7.29 11.73-18.88 21.85-33.21 21.8-25.91 0-46.92-33.3-46.92-74.4-0.87-29.35-7.95-54.13-30.11-69.6-35.9-18.94-63.23 22-63.72 69.6 0 20.5-5.2 39.1-13.71 52.6-7.32 11.73-18.86 21.85-33.21 21.8-25.91 0-46.92-33.3-46.92-74.4-0.74-27.74-7.16-50.37-25.9-66.6-36.46-26.03-67.86 17.07-67.96 66.6 0 20.5-5.2 39.1-13.7 52.6-7.46 11.73-18.8 21.86-33.22 21.8-25.91 0-46.91-33.3-46.91-74.4-0.49-25.88-6.55-46.53-21.71-62.9h-0.3c-5-4.73-10.11-9-17.01-10.4-23.73-3.13-56.61-0.85-68.72 20.6-11.75 28.43 22.35 57.58 34.01 81.6 11.14 18 19.88 32.66 34.81 45.9-13.26-5.88-29.12-5.32-45.52-4.5-8.9 0.4-18.7 0.9-29.01 0.2-25.76-1.6-46.38 7.29-62.82 21.2-33.75 35.23 11.25 69.48 62.82 69.1 20.61 0 39.22 5 52.72 13.2 49.68 31.34 6.01 78.51-52.72 76.7-30.5 1-57.43 8-71.82 32.8-12.74 33.35 26.14 56.29 71.82 57 20.61 0 39.22 5.1 52.72 13.2 49.68 31.27 6.01 78.56-52.72 76.7-31.54 0.6-71.38 11.71-74.52 44.9 0 24.8 33.41 45 74.52 45 31.64 0.62 71.37 11.62 74.53 44.9 0 24.8-33.41 44.9-74.53 44.9-27.72 0.78-49.93 6.79-66.62 24.8-26.07 35.47 17.57 64.92 66.62 65.1 30.5 1.08 57.45 7.92 71.83 32.8 12.75 33.45-26.15 56.22-71.83 57-31.63 0.74-71.28 11.64-74.52 44.9 0 24.9 33.41 45 74.52 45 31.37 1.26 61.64 8.58 73.33 36.9 7.53 31.15-29.16 52.15-73.33 52.9-25.85 0.5-46.23 6.26-62.82 20.8-33.78 35.07 11.35 69.59 62.82 69.1 31.75 0.74 71.25 11.49 74.53 44.9 0 24.8-33.41 45-74.53 45-25.85 0.51-46.33 6.08-62.82 20.8v-0.1c-33.76 35.15 11.26 69.53 62.82 69.1 20.61 0 39.22 5 52.72 13.2 11.48 6.87 21.76 17.8 21.81 31.7 0 24.8-33.41 45-74.53 45-25.85 0.55-46.33 6-62.82 20.8v-0.1c-33.76 35.19 11.25 69.5 62.82 69.1 20.61 0 39.22 5 52.72 13.2 49.7 31.26 5.92 78.58-52.72 76.7-29.2 0.94-53.76 7.24-69.52 28.8-19.25 34.76 22.39 60.48 69.52 61 20.61 0 39.22 5.1 52.72 13.2 49.68 31.21 6.01 78.61-52.72 76.7-29.2 0.94-53.75 7.25-69.52 28.8-19.24 34.79 22.38 60.46 69.52 61 20.61 0 39.22 5.1 52.72 13.2 49.67 31.15 6.01 78.65-52.72 76.7-29.16 1-53.72 7.31-69.52 28.8-19.24 34.8 22.39 60.53 69.52 61.1 20.61 0 39.22 5 52.72 13.1 11.42 7.07 21.79 17.76 21.81 31.8 0 24.8-33.41 44.9-74.53 44.9-25.84 0.53-46.25 6.21-62.82 20.8v-0.9c-4.89 4.89-9 10.13-10.5 17-3.18 23.75-0.73 56.58 20.6 68.7 28.02 12 57.93-22.53 81.73-34 17.8-10.92 32.7-20 45.92-34.81-6.18 13.26-5.15 29-4.6 45.5 0.4 8.9 1 18.7 0.3 29-1.75 25.7 7.24 46.45 21.21 62.8l-0.11 0.11c36.17 33.42 72.6-10.82 72.12-62.9 0-20.5 5.21-39.1 13.71-52.6 7.27-11.7 18.86-21.86 33.11-21.8 25.91 0 46.92 33.3 46.92 74.4 0.51 25.88 6.61 46.53 21.71 62.9h0.1c36.17 33.42 72.6-10.82 72.12-62.9 0-20.5 5.2-39.1 13.71-52.6 7.27-11.7 18.86-21.86 33.11-21.8 25.91 0 46.92 33.3 46.92 74.4 0.51 25.88 6.61 46.53 21.71 62.9h0.1c36.18 33.41 72.59-10.82 72.12-62.9 0-20.5 5.2-39.1 13.71-52.6 7.26-11.67 18.86-21.86 33.11-21.8 25.91 0 46.92 33.3 46.92 74.4 0.51 25.88 6.61 46.53 21.7 62.9h0.1c36.2 33.41 72.6-10.82 72.13-62.9 0-20.5 5.2-39.1 13.71-52.6 7.29-11.7 18.9-21.91 33.21-21.8 25.81 0 46.82 33.3 46.82 74.4 0.51 25.88 6.61 46.53 21.7 62.9h0.1c36.2 33.41 72.6-10.82 72.13-62.9 0-20.5 5.2-39.1 13.7-52.6 7.3-11.7 18.91-21.91 33.22-21.8 25.81 0 46.81 33.3 46.81 74.4 0.48 25.88 6.72 46.44 21.71 62.9h0.1c36.2 33.41 72.6-10.82 72.13-62.9 0-20.5 5.2-39.1 13.7-52.6 7.31-11.71 18.89-21.89 33.22-21.8 25.81 0 46.81 33.3 46.81 74.4 0.48 25.88 6.72 46.44 21.71 62.9h0.1c36.19 33.41 72.6-10.82 72.13-62.9 0-20.5 5.2-39.1 13.7-52.6 7.3-11.71 18.89-21.89 33.21-21.8 25.81 0 46.82 33.3 46.82 74.4 0.48 25.88 6.71 46.44 21.71 62.9h0.1c36.22 33.41 72.59-10.82 72.13-62.9 0-20.5 5.2-39.1 13.7-52.6 7.31-11.73 18.86-21.86 33.21-21.8 25.81 0 46.82 33.3 46.82 74.4 0.48 25.88 6.71 46.44 21.71 62.9h0.1c36.22 33.41 72.58-10.82 72.12-62.9 0-20.5 5.21-39.1 13.71-52.6 7.31-11.73 18.86-21.86 33.21-21.8 25.81 0 46.82 33.3 46.82 74.4 0.48 25.88 6.71 46.44 21.71 62.9h0.1c36.22 33.41 72.58-10.82 72.12-62.9 0-20.5 5.21-39.1 13.71-52.6 7.32-11.73 18.85-21.84 33.21-21.8 25.81 0 46.82 33.3 46.82 74.4 0.48 25.88 6.71 46.44 21.71 62.9h0.1c36.23 33.4 72.57-10.82 72.12-62.9 0-20.5 5.2-39.1 13.71-52.6 7.32-11.73 18.84-21.84 33.21-21.8 25.81 0 46.82 33.3 46.82 74.4 0.48 25.88 6.71 46.44 21.7 62.9h0.1c36.25 33.4 72.59-10.82 72.13-62.9 0-20.5 5.2-39.1 13.71-52.6 7.32-11.73 18.84-21.84 33.21-21.8 25.81 0 46.82 33.3 46.82 74.4 0.48 25.88 6.71 46.44 21.7 62.9h0.1c36.28 33.4 72.56-10.82 72.13-62.9 0-20.5 5.2-39.1 13.71-52.6 7.27-11.73 18.87-21.84 33.21-21.8 25.91 0 46.81 33.3 46.81 74.4 0.76 27.74 7.29 50.36 26.01 66.6 36.44 26.05 67.87-17.06 67.93-66.6 0-20.5 5.2-39.1 13.7-52.6 7.3-11.72 18.89-21.84 33.22-21.8 25.91 0 46.91 33.3 46.91 74.4 0.87 29.36 8.01 54.14 30.11 69.6 35.91 19 63.24-22 63.73-69.59 0-20.51 5.2-39.11 13.7-52.61 7.33-11.72 18.86-21.84 33.21-21.8 25.91 0 46.92 33.3 46.92 74.4 0.74 27.75 7.16 50.37 25.91 66.6 36.45 26 67.86-17 67.93-66.59 0-20.51 5.2-39.11 13.7-52.61 7.45-11.72 18.8-21.85 33.21-21.8 25.91 0 46.92 33.3 46.92 74.4 0.49 25.89 6.54 46.54 21.71 62.9h0.3c5 4.74 10.1 9 17.01 10.4 23.72 3.14 56.6 0.85 68.72-20.6 11.74-28.42-22.36-57.57-34.01-81.6-11.15-18-19.88-32.66-34.81-45.9 13.26 5.88 29.12 5.33 45.51 4.5 8.91-0.4 18.71-0.9 29.01-0.2 25.76 1.6 46.39-7.28 62.83-21.19 33.75-35.23-11.25-69.48-62.83-69.11-20.61 0-39.21-5-52.72-13.2-49.68-31.33-6-78.51 52.72-76.69 30.5-1 57.43-8 71.83-32.8 12.73-33.36-26.14-56.29-71.83-57-20.61 0-39.21-5.1-52.72-13.2-49.68-31.26-6-78.56 52.72-76.69 31.54-0.6 71.39-11.72 74.53-44.91 0-24.8-33.41-45-74.53-45-31.63-0.61-71.37-11.61-74.52-44.9 0-24.8 33.41-44.9 74.52-44.9 27.72-0.77 49.94-6.78 66.63-24.8 26.07-35.47-17.57-64.91-66.63-65.1-30.49-1.08-57.44-7.92-71.82-32.8-12.75-33.45 26.15-56.21 71.82-57 31.62-0.73 71.29-11.64 74.53-44.9 0-24.9-33.41-45-74.53-45-31.36-1.26-61.63-8.58-73.32-36.9-7.54-31.15 29.16-52.14 73.32-52.9 25.84-0.49 46.24-6.26 62.83-20.8 33.78-35.06-11.35-69.59-62.83-69.1-31.74-0.73-71.24-11.48-74.52-44.9 0-24.8 33.41-45 74.52-45 25.85-0.51 46.34-6.07 62.83-20.8v0.1c33.76-35.14-11.26-69.52-62.83-69.1-20.61 0-39.21-5-52.72-13.2-11.47-6.87-21.75-17.8-21.8-31.7 0-24.8 33.41-45 74.52-45 25.85-0.55 46.34-6 62.83-20.8v0.1c33.76-35.18-11.25-69.5-62.83-69.1-20.61 0-39.21-5-52.72-13.2-49.7-31.25-5.91-78.57 52.72-76.69 29.2-0.94 53.76-7.25 69.53-28.81 19.25-34.75-22.39-60.48-69.53-61-20.61 0-39.21-5.1-52.72-13.2-49.68-31.2-6-78.6 52.72-76.69 29.2-1 53.75-7.25 69.53-28.81 19.23-34.79-22.38-60.45-69.53-61-20.61 0-39.21-5.1-52.72-13.2-49.66-31.14-6-78.65 52.72-76.69 29.15-0.95 53.72-7.31 69.53-28.81 19.23-34.8-22.39-60.53-69.53-61.1-20.61 0-39.21-5-52.72-13.1-11.41-7.07-21.78-17.75-21.8-31.8 0-24.8 33.41-44.9 74.52-44.9 25.84-0.53 46.26-6.21 62.83-20.8v0.9c4.89-4.88 9-10.12 10.5-17 3.18-23.74 0.73-56.57-20.61-68.7-28.01-12-57.92 22.53-81.73 34-17.79 10.92-32.69 20-45.92 34.8 6.19-13.25 5.16-29.05 4.61-45.5-0.4-8.9-1-18.7-0.3-29 1.75-25.69-7.25-46.44-21.21-62.8"/>
					<path fill-rule="evenodd" class="s2" d="m3255.08 88.41c-36.96-19-63.17 23-63.73 69.6 0 20.5-5.2 39.1-13.7 52.6-33.14 50.58-81.78 5.11-80.03-52.6-0.84-29.18-8.24-54.3-30.11-69.6h-0.1c-36.96-19-63.17 23-63.73 69.6 0 20.5-5.2 39.1-13.7 52.6-33.14 50.58-81.78 5.11-80.03-52.6-0.84-29.18-8.24-54.3-30.11-69.6h-0.1c-37.01-19-63.16 23-63.73 69.6 0 20.5-5.19 39.1-13.7 52.6-33.15 50.57-81.78 5.11-80.03-52.6-0.84-29.18-8.24-54.3-30.11-69.6h-0.1c-37.01-19-63.16 23-63.73 69.6 0 20.5-5.19 39.1-13.7 52.6-33.15 50.57-81.78 5.11-80.03-52.6-0.83-29.24-8.23-54.21-30.11-69.6h-0.1c-37.01-19-63.16 23-63.72 69.6 0 20.5-5.2 39.1-13.7 52.6-33.17 50.56-81.78 5.12-80.03-52.6-0.83-29.24-8.24-54.21-30.12-69.6h-0.1c-37.01-19-63.16 23-63.73 69.6 0 20.5-5.19 39.1-13.69 52.6-33.18 50.55-81.76 5.21-80.03-52.6-0.83-29.24-8.24-54.21-30.11-69.6h-0.11c-37.02-19-63.16 23-63.73 69.6 0 20.5-5.19 39.1-13.69 52.6-33.15 50.55-81.84 5.19-80.17-52.61-0.81-29.24-8.1-54.21-30.01-69.6h-0.11c-37.02-19-63.16 23-63.73 69.6 0 20.5-5.2 39.1-13.7 52.6-33.14 50.55-81.83 5.19-80.12-52.6-0.81-29.24-8.11-54.21-30.01-69.6h-0.1c-37.02-19-63.14 23-63.72 69.6 0 20.5-5.21 39.1-13.71 52.6-33.14 50.55-81.83 5.19-80.12-52.6-0.81-29.24-8.11-54.21-30.01-69.6h-0.1c-37.01-19-63.14 23-63.72 69.6 0 20.5-5.21 39.1-13.71 52.6-33.19 50.53-81.81 5.19-80.13-52.6-0.8-29.24-8.1-54.21-30.01-69.6h-0.1c-37.01-19-63.14 23-63.72 69.6 0 20.5-5.2 39.1-13.71 52.6-33.24 50.53-81.79 5.19-80.13-52.6-0.8-29.24-8.1-54.21-30.01-69.6h-0.1c-37.01-19-63.14 23-63.72 69.6 0 20.5-5.2 39.1-13.71 52.6-33.22 50.54-81.77 5.2-80.14-52.6-0.8-29.24-8.1-54.21-30.01-69.6h-0.1c-37.01-19-63.14 23-63.72 69.6 0 20.5-5.2 39.1-13.71 52.6-33.24 50.53-81.79 5.19-80.12-52.6-0.83-29.22-8.07-54.36-30.12-69.6-37.01-19-63.14 23-63.72 69.6 0 20.5-5.2 39.1-13.7 52.6-33.25 50.53-81.79 5.19-80.13-52.6-0.83-29.22-8.07-54.36-30.11-69.6-37.02-19-63.16 23-63.73 69.6 0 20.5-5.3 39.1-13.7 52.6-33.25 50.53-81.79 5.19-80.13-52.6-0.83-29.22-8.07-54.36-30.11-69.6-37.02-19-63.16 23-63.73 69.6 0 20.5-5.3 39.1-13.7 52.6-33.21 50.54-81.73 5.2-80.1-52.6-0.83-29.22-8.06-54.36-30.11-69.6h-0.3c-7.45-5.05-16.5-5.4-25.24-4.59-27.11 1.38-57.61 16-49.52 46.6 4.36 17.68 20.85 39.77 28.11 56.5 9 17.78 16.59 33 29.71 45.8-21.12-11.6-49.71-7.89-74.53-12.3-19.8-3.85-38.49-1.41-52.69 13.4-12.82 7.72-23.72 20.67-21.5 36.1 3.4 22.9 35.31 40.9 74.22 40.9 20.61 0 39.22 5 52.72 13.1 50.79 32.49 4.49 78.4-52.72 76.8-31.37-0.15-76.94 14.18-74.22 48.9 3.4 22.9 35.31 40.9 74.22 40.9 20.61 0 39.22 5 52.72 13.1 10.73 6.7 19.46 15.42 21.51 27.8 2.51 29.83-32.19 48.21-74.23 49-27.57 0.67-50.29 6.83-66.62 24.8-26.58 36 19.13 65 66.62 65 30.22 0.94 57.96 8.18 71.83 32.9 12.78 34.25-27.47 56.33-71.83 57-27.57 0.68-50.29 6.83-66.62 24.8-26.58 36 19.12 65 66.62 65 20.61 0 39.22 5.1 52.72 13.2 50.81 32.19 4.49 78.41-52.72 76.7-31.33-0.14-76.96 14.23-74.22 48.9 3.4 22.9 35.31 40.9 74.22 40.9 30.79 0.22 72.29 12.58 74.53 45-1 26.65-33.91 44.33-74.53 44.9-27.56 0.65-50.2 6.94-66.62 24.8-26.56 36.15 19.12 65 66.62 65 20.61 0 39.22 5.1 52.72 13.2 50.75 32.09 4.53 78.47-52.72 76.7-29.01 0.94-54.1 7.41-69.52 28.9v-0.1c-19.49 35.53 23.84 60.66 69.52 61 20.61 0 39.22 5.1 52.72 13.2 12.85 7.78 23.74 20.29 21.51 35.8-3.4 23-35.31 40.9-74.23 40.9-29.01 0.88-54.02 7.45-69.52 28.9v-0.1c-19.51 35.47 23.77 60.77 69.52 61.1 20.61 0 39.22 5 52.72 13.1 12.86 7.71 23.71 20.33 21.51 35.8-3.4 23-35.31 40.9-74.23 40.9-29.01 0.91-54.02 7.48-69.52 28.9-19.54 35.39 23.87 60.68 69.52 61 27.57 0.67 50.29 6.83 66.63 24.8 26.54 36.11-19.12 65.15-66.63 65.1-29.01 0.91-54.02 7.34-69.52 28.8-19.53 35.43 23.86 60.65 69.52 61 20.61 0 39.22 5 52.72 13.1 50.75 32.33 4.5 78.49-52.72 76.8-29.07 0.9-54.02 7.37-69.52 28.8-19.53 35.47 23.86 60.62 69.52 61 20.61 0 39.22 5 52.72 13.2 12.94 7.85 23.73 20.22 21.51 35.8-3.4 22.9-35.31 40.9-74.23 40.9-29.01 0.92-54.02 7.36-69.52 28.8v-0.9c-5.18 7.35-5.5 16.51-4.7 25.2 1.68 19.14 7.5 39.39 23.81 47.8 16.75 7.54 34.01-1 50.41-10.8 23.77-14.66 49.46-23.09 69.43-40.2 1.9-1.68 3.73-3.38 5.4-5.1l-0.2 0.4c-3.57 5.49-6 14.77-7.4 23.7-2.3 15.63-1.79 33.35-4.8 50.4-1.8 10.3-2.2 20.1-0.1 29q0.78 3.37 2.04 6.6 1.27 3.22 2.98 6.23 1.72 3.01 3.85 5.74 2.13 2.73 4.63 5.13c4.57 7.2 9.46 12.66 16.01 16.9h-0.12c36.95 19 63.17-23 63.72-69.59 0-20.51 5.2-39.11 13.71-52.61 33.14-50.57 81.78-5.1 80.03 52.6 0.84 29.19 8.24 54.31 30.11 69.6h0.1c36.95 19 63.17-23 63.72-69.59 0-20.51 5.2-39.11 13.7-52.61 33.15-50.57 81.79-5.1 80.03 52.6 0.84 29.19 8.25 54.31 30.12 69.6h0.1c37.01 19 63.16-23 63.72-69.59 0-20.51 5.2-39.11 13.7-52.61 33.16-50.56 81.78-5.11 80.03 52.6 0.84 29.19 8.25 54.31 30.11 69.6h0.1c37.02 19 63.17-23 63.73-69.59 0-20.51 5.2-39.11 13.7-52.61 33.15-50.56 81.78-5.11 80.03 52.6 0.83 29.24 8.23 54.21 30.11 69.6h0.1c37.02 19 63.17-23 63.73-69.59 0-20.51 5.2-39.11 13.7-52.61 33.16-50.55 81.78-5.11 80.03 52.6 0.83 29.24 8.23 54.21 30.11 69.6h0.1c37.02 19 63.16-23 63.73-69.59 0-20.51 5.2-39.11 13.7-52.61 33.17-50.54 81.76-5.2 80.03 52.6 0.83 29.24 8.23 54.21 30.11 69.6h0.1c37.01 19 63.16-23 63.72-69.59 0-20.51 5.21-39.11 13.71-52.61 33.15-50.54 81.84-5.18 80.13 52.6 0.81 29.25 8.1 54.22 30.01 69.6h0.1c37.01 19 63.16-23 63.73-69.59 0-20.51 5.19-39.11 13.7-52.61 33.15-50.54 81.84-5.18 80.13 52.6 0.81 29.25 8.1 54.22 30.01 69.6h0.11c37.01 19 63.14-23 63.72-69.59 0-20.51 5.2-39.11 13.71-52.61 33.14-50.54 81.83-5.18 80.12 52.6 0.81 29.25 8.11 54.22 30.01 69.6h0.11c37.01 19 63.14-23 63.72-69.59 0-20.51 5.2-39.11 13.71-52.61 33.18-50.53 81.81-5.19 80.11 52.6 0.82 29.25 8.12 54.22 30.02 69.6h0.1c37.01 19 63.14-23 63.72-69.59 0-20.51 5.2-39.11 13.7-52.61 33.25-50.52 81.79-5.19 80.12 52.6 0.81 29.25 8.12 54.22 30.01 69.6h0.1c37.02 19 63.15-23 63.73-69.59 0-20.51 5.2-39.11 13.7-52.61 33.25-50.52 81.79-5.19 80.13 52.6 0.8 29.25 8.11 54.22 30.01 69.6h0.1c37.02 19 63.15-23 63.73-69.59 0-20.51 5.2-39.11 13.7-52.61 33.24-50.52 81.79-5.19 80.13 52.6 0.83 29.23 8.06 54.36 30.11 69.6 37.02 19 63.15-23 63.73-69.59 0-20.51 5.2-39.11 13.7-52.61 33.24-50.52 81.79-5.19 80.13 52.6 0.83 29.23 8.06 54.36 30.11 69.6 37.01 19 63.14-23 63.72-69.59 0-20.51 5.31-39.11 13.71-52.61 33.24-50.52 81.79-5.19 80.13 52.6 0.83 29.23 8.06 54.36 30.11 69.6 37.01 19 63.15-23 63.72-69.59 0-20.51 5.31-39.11 13.71-52.61 33.24-50.52 81.79-5.19 80.13 52.6 0.83 29.23 8.06 54.36 30.11 69.6h0.3c7.44 5.06 16.49 5.44 25.21 4.6 27.11-1.38 57.61-16 49.52-46.6-4.37-17.67-20.85-39.77-28.11-56.5-9.01-17.78-16.6-32.95-29.71-45.8 21.11 11.61 49.7 7.9 74.52 12.3 19.86 3.85 38.53 1.42 52.72-13.4 12.83-7.71 23.72-20.66 21.51-36.1-3.4-22.9-35.31-40.9-74.23-40.9-20.61 0-39.21-5-52.72-13.1-50.79-32.48-4.48-78.39 52.72-76.79 31.37 0.14 76.95-14.18 74.23-48.91-3.4-22.9-35.31-40.9-74.23-40.9-20.61 0-39.21-5-52.72-13.1-10.72-6.69-19.45-15.41-21.5-27.8-2.52-29.82 32.19-48.2 74.22-49 27.57-0.66 50.3-6.82 66.63-24.8 26.58-36-19.13-65-66.63-65-30.21-0.94-57.95-8.18-71.82-32.9-12.78-34.24 27.47-56.33 71.82-57 27.57-0.67 50.3-6.82 66.63-24.8 26.58-36-19.13-65-66.63-65-20.61 0-39.21-5.1-52.72-13.2-50.81-32.18-4.49-78.41 52.72-76.7 31.33 0.15 76.97-14.22 74.23-48.9-3.4-22.9-35.31-40.9-74.23-40.9-30.78-0.21-72.28-12.57-74.52-45 1-26.64 33.91-44.33 74.52-44.9 27.56-0.64 50.21-6.93 66.63-24.8 26.56-36.14-19.12-65-66.63-65-20.61 0-39.21-5.1-52.72-13.2-50.75-32.08-4.52-78.46 52.72-76.7 29.01-0.94 54.1-7.4 69.53-28.9v0.1c19.49-35.52-23.84-60.66-69.53-61-20.61 0-39.21-5.1-52.72-13.2-12.84-7.77-23.74-20.28-21.5-35.8 3.4-23 35.31-40.9 74.22-40.9 29.01-0.87 54.02-7.44 69.53-28.9v0.1c19.51-35.47-23.77-60.76-69.53-61.1-20.61 0-39.21-5-52.72-13.1-12.85-7.71-23.71-20.33-21.5-35.8 3.4-23 35.31-40.9 74.22-40.9 29.01-0.91 54.02-7.48 69.53-28.9 19.54-35.38-23.87-60.67-69.53-61-27.57-0.67-50.29-6.82-66.62-24.8-26.54-36.1 19.12-65.14 66.62-65.1 29.01-0.9 54.02-7.33 69.53-28.8 19.53-35.42-23.86-60.64-69.53-61-20.61 0-39.21-5-52.72-13.1-50.75-32.32-4.49-78.48 52.72-76.8 29.01-0.89 54.02-7.36 69.53-28.8 19.53-35.46-23.86-60.62-69.53-61-20.61 0-39.21-5-52.72-13.2-12.93-7.84-23.73-20.22-21.5-35.8 3.4-22.9 35.31-40.9 74.22-40.9 29.01-0.91 54.02-7.35 69.53-28.8v0.9c5.17-7.35 5.5-16.5 4.7-25.2-1.68-19.14-7.5-39.38-23.81-47.8-16.76-7.54-34.01 1-50.42 10.8-23.77 14.66-49.46 23.1-69.42 40.2-1.9 1.68-3.73 3.38-5.41 5.1q0.01 0 0.21-0.4c3.57-5.48 6-14.77 7.4-23.7 2.3-15.62 1.79-33.34 4.8-50.4 1.8-10.3 2.2-20.1 0.1-29q-0.79-3.37-2.05-6.6-1.26-3.22-2.98-6.23-1.71-3.01-3.84-5.74-2.13-2.73-4.64-5.13c-4.57-7.19-9.45-12.65-16-16.9"/>
					<path fill-rule="evenodd" class="s2" d="m3255.07 84.72c-34.54-6.94-54.46 30.62-55.32 73.29 0 20.51-5.2 39.11-13.71 52.61-34.35 51.26-81.73 3.67-80.03-52.6-0.67-31-10.44-62.88-38.51-73.3-34.66-7-54.52 30.56-55.42 73.29 0 20.51-5.2 39.11-13.71 52.61-34.3 51.25-81.75 3.68-80.02-52.6-0.62-30.3-9.41-58.49-34.32-71.8-36.78-12.52-58.78 27.78-59.62 71.78 0 20.51-5.2 39.11-13.7 52.61-34.25 51.23-81.78 3.68-80.03-52.6-0.63-30.3-9.43-58.49-34.32-71.8-36.8-12.51-58.76 27.79-59.65 71.79 0 20.51-5.2 39.11-13.7 52.61-8.94 14.67-24.53 25.61-41.52 20.6-21.91-6.2-38.51-36.7-38.51-73.2 0-20.6-5.3-39.2-13.81-52.7-9-14.84-24.52-25.55-41.61-20.6-21.91 6.2-38.52 36.7-38.52 73.3 0 20.5-5.2 39.1-13.7 52.6-9 14.67-24.5 25.61-41.52 20.6-21.9-6.2-38.51-36.7-38.51-73.2 0-20.6-5.3-39.2-13.81-52.7-9.07-14.84-24.49-25.55-41.61-20.6-21.91 6.2-38.52 36.7-38.52 73.3-0.71 30.22-9.22 58.47-34.31 71.7-36.67 12.52-58.54-27.91-59.42-71.7 0-20.6-5.3-39.2-13.8-52.7-34.09-51.22-82.04-3.75-80.13 52.7-0.8 93.49-89.62 103.8-93.74 0 0.21-33.62-17.48-81.48-55.42-73.3-21.91 6.2-38.51 36.7-38.51 73.3 0 20.5-5.2 39.1-13.71 52.6-9.13 14.73-24.45 25.61-41.61 20.6-21.91-6.2-38.42-36.7-38.42-73.2 0-20.6-5.3-39.2-13.8-52.7-33.95-51.19-82.08-3.75-80.13 52.71 0.2 33.59-17.31 81.37-55.32 73.2-21.91-6.21-38.42-36.71-38.42-73.21 0-20.6-5.3-39.2-13.8-52.7-9.19-14.76-24.41-25.56-41.62-20.6-21.9 6.2-38.51 36.7-38.51 73.3 0 20.5-5.2 39.1-13.71 52.6-9.21 14.73-24.38 25.61-41.61 20.6-21.91-6.2-38.42-36.7-38.42-73.2-0.9-30.35-9.21-58.38-34.31-71.8-37.01-12.51-58.63 27.75-59.62 71.8 0 20.5-5.2 39.1-13.7 52.6-33.74 51.16-82.17 3.78-80.13-52.6-0.58-93.35-89.7-104.15-93.84 0 0.06 33.69-17.15 81.3-55.32 73.2-21.91-6.2-38.51-36.7-38.51-73.2 0-20.6-5.2-39.2-13.71-52.7-33.64-51.15-82.25-3.76-80.13 52.7 0 20.5-5.2 39.1-13.7 52.6-33.57 51.14-82.26 3.78-80.13-52.6-0.81-29-8.25-54.69-30.11-69.6-38.04-19.03-63.13 24.18-63.73 69.59 0 20.5-5.2 39.1-13.7 52.6-33.48 51.13-82.31 3.79-80.13-52.6-0.77-31.63-11.48-67.43-42.72-74.2-32.65-2.14-49.75 32.79-51.08 74.2 0 20.5-5.21 39.1-13.81 52.6-33.21 51.2-82.31 3.7-80.03-52.6-1.28-31.41-9.72-62.55-38.51-73.3-35.22-6.93-54.02 30.63-55.32 73.3 0 20.5-5.21 39.1-13.81 52.6-9.27 14.76-24.21 25.6-41.51 20.6-21.91-6.2-38.55-36.69-38.55-73.2 0-20.6-5.2-39.2-13.7-52.7-6.72-10.07-14.12-17.69-25.11-20.6-21.68-4.5-54.16 9.13-60.62 25.3-11.94 20.71 11.61 54.92 19.1 76.9 5.91 16.62 13.44 32.52 23.31 44.3h0.1c0.27 0.37 1 1.06 1.2 1.4-17.35-12.2-48.28-13.6-74.53-20.5-10.3-2.9-20.1-4.3-29.01-3.2-14.41 1.53-26.2 10.72-33.51 23.5-8.18 9.05-15 20.91-10.8 33.4 20.77 50.73 87.53 25.54 126.04 50.1 51.55 33.09 2.87 78.61-52.72 76.7-32.43-0.32-81.46 16.1-73.32 53 20.83 50.58 87.6 25.47 126.04 50 12.26 7.55 21.5 17.69 21.81 31.8-2 28.27-34.59 44-74.53 44.9-28.81 0.7-54.41 7.7-69.49 28.91-19.65 36.45 25.23 60.64 69.52 61 30.22 0.87 58.03 8.34 71.83 32.8 12.67 35.51-28.72 56.24-71.83 57-28.81 0.76-54.44 7.7-69.52 28.9-19.66 36.47 25.23 60.62 69.52 61 20.61 0 39.22 5 52.72 13.1 51.5 33 2.88 78.68-52.72 76.7-32.53-0.14-81.38 16-73.32 53 6.3 21 36.71 36.9 73.32 36.9 32.56-0.15 81.39 15.9 73.33 53-6.3 20.9-36.71 36.8-73.33 36.8-30.21 1-58.02 8.4-71.82 32.9-12.67 35.63 28.72 56.16 71.82 57 20.61 0 39.22 5 52.72 13.2 51.54 32.74 2.86 78.8-52.72 76.7-31.17 1.19-62.09 8.89-73.32 36.9v-0.1c-6.68 34.07 31.01 51.79 73.32 53 20.61 0 39.22 5 52.72 13.19 51.56 32.93 2.85 78.69-52.72 76.7-31.17 1-62.09 9-73.32 36.9v-0.1c-6.68 34 30.96 51.84 73.32 53 20.61 0 39.22 5 52.72 13.19 51.54 33 2.87 78.63-52.72 76.7-30.17 0.82-57.95 8.46-71.82 32.8-12.67 35.48 28.71 56.26 71.82 57 20.61 0 39.22 5.1 52.72 13.2 51.53 33 2.88 78.66-52.72 76.7-30.21 0.88-58.02 8.4-71.82 32.9-12.69 35.45 28.72 56.21 71.82 57 20.61 0 39.22 5 52.72 13.1 51.51 33 2.88 78.68-52.72 76.7-28.81 0.78-54.44 7.68-69.52 28.9-19.65 36.51 25.23 60.6 69.52 61 20.61 0 39.22 5 52.72 13.1 51.49 32.93 2.89 78.71-52.72 76.7-30.94 1-62.18 9.18-73.32 36.9v-0.9c-1.79 5.74-1.32 11.14 0 17 6.26 43.75 35.1 58.43 73.32 37 24.85-12.62 53.36-18.64 73.23-35.8h0.1l1.3-1.3c-12.54 17.39-13.3 48.24-20.41 74.5-3 10.3-4.4 20.1-3.3 29 1.53 14.34 10.87 26.21 23.51 33.5 5.66 4.27 10.35 9.1 17.41 10.8h-0.11c34.54 6.93 54.46-30.63 55.32-73.3 0-20.5 5.2-39.1 13.7-52.6 34.36-51.26 81.73-3.68 80.03 52.6 0.68 31 10.46 62.87 38.52 73.3 34.67 7 54.53-30.56 55.43-73.3 0-20.5 5.2-39.1 13.7-52.6 34.29-51.25 81.75-3.68 80.03 52.6 0.63 30.3 9.41 58.49 34.31 71.8 36.8 12.51 58.8-27.74 59.64-71.8 0-20.5 5.2-39.1 13.7-52.6 34.24-51.24 81.78-3.69 80.03 52.6 0.64 30.3 9.43 58.48 34.31 71.8 36.82 12.52 58.77-27.74 59.63-71.8 0-20.5 5.21-39.1 13.71-52.6 8.93-14.67 24.53-25.61 41.51-20.6 21.91 6.2 38.52 36.7 38.52 73.2 0 20.6 5.3 39.2 13.8 52.7 9.01 14.84 24.52 25.55 41.62 20.6 21.91-6.2 38.51-36.7 38.51-73.3 0-20.5 5.21-39.1 13.71-52.6 9-14.67 24.5-25.61 41.51-20.6 21.91 6.2 38.52 36.7 38.52 73.2 0 20.6 5.3 39.2 13.8 52.7 9.08 14.84 24.49 25.55 41.62 20.6 21.91-6.2 38.51-36.7 38.51-73.3 0.71-30.23 9.23-58.47 34.3-71.7 36.69-12.53 58.56 27.9 59.44 71.7 0 20.6 5.3 39.2 13.8 52.7 34.08 51.22 82.03 3.75 80.12-52.7 0.81-93.49 89.62-103.81 93.75 0-0.21 33.62 17.47 81.48 55.42 73.3 21.9-6.2 38.51-36.7 38.51-73.3 0-20.5 5.2-39.1 13.7-52.6 9.14-14.73 24.45-25.6 41.62-20.6 21.91 6.2 38.41 36.7 38.41 73.2 0 20.6 5.31 39.2 13.81 52.7 33.94 51.2 82.03 3.75 80.12-52.7-0.19-33.59 17.32-81.37 55.33-73.2 21.91 6.2 38.41 36.7 38.41 73.2 0 20.6 5.3 39.2 13.81 52.7 9.19 14.76 24.41 25.57 41.61 20.6 21.91-6.2 38.52-36.7 38.52-73.3 0-20.5 5.2-39.1 13.7-52.6 9.22-14.72 24.39-25.61 41.62-20.6 21.91 6.2 38.41 36.7 38.41 73.2 0.9 30.35 9.22 58.38 34.31 71.8 37.02 12.52 58.64-27.74 59.63-71.8 0-20.5 5.2-39.1 13.7-52.6 33.72-51.15 82.17-3.77 80.13 52.6 0.57 93.36 89.69 104.15 93.84 0-0.06-33.68 17.15-81.3 55.32-73.2 21.9 6.2 38.51 36.7 38.51 73.2 0 20.6 5.2 39.2 13.7 52.7 33.65 51.16 82.24 3.77 80.13-52.7 0-20.5 5.21-39.1 13.71-52.6 33.56-51.13 82.26-3.78 80.13 52.6 0.81 29 8.25 54.69 30.11 69.6 38.01 19 63.15-24.18 63.72-69.59 0-20.51 5.2-39.11 13.71-52.61 33.48-51.12 82.31-3.78 80.13 52.6 0.77 31.64 11.48 67.44 42.71 74.2 32.68 2.15 49.79-32.77 51.12-74.2 0-20.5 5.2-39.1 13.81-52.6 33.21-51.19 82.31-3.69 80.03 52.6 1.28 31.41 9.71 62.55 38.51 73.3 35.21 6.94 54.02-30.62 55.32-73.29 0-20.51 5.2-39.11 13.81-52.61 9.27-14.76 24.2-25.59 41.51-20.6 21.91 6.2 38.51 36.7 38.51 73.2 0 20.6 5.21 39.2 13.71 52.7 6.71 10.08 14.12 17.69 25.11 20.6 21.68 4.5 54.16-9.13 60.62-25.3 11.93-20.7-11.61-54.91-19.11-76.9-5.91-16.62-13.44-32.52-23.3-44.3h-0.1c-0.27-0.36-1-1.06-1.2-1.4 17.35 12.21 48.27 13.61 74.52 20.5 10.31 2.9 20.11 4.3 29.01 3.2 14.42-1.52 26.2-10.72 33.52-23.5 8.18-9 15-20.91 10.8-33.4-20.78-50.72-87.54-25.53-126.05-50.1-51.55-33.09-2.87-78.6 52.72-76.69 32.43 0.32 81.46-16.11 73.33-53-20.84-50.58-87.6-25.46-126.05-50-12.25-7.55-21.49-17.69-21.8-31.8 2-28.26 34.59-44 74.52-44.9 28.8-0.72 54.44-7.71 69.53-28.9 19.65-36.44-25.23-60.63-69.53-61-30.21-0.86-58.02-8.33-71.82-32.8-12.67-35.5 28.71-56.24 71.82-57 28.8-0.75 54.44-7.69 69.53-28.9 19.66-36.47-25.24-60.61-69.53-61-20.61 0-39.21-5-52.72-13.1-51.5-33-2.89-78.68 52.72-76.69 32.52 0.13 81.38-16 73.33-53-6.3-21-36.71-36.9-73.33-36.9-32.56 0.16-81.39-15.89-73.32-53 6.3-20.9 36.71-36.8 73.32-36.8 30.21-1 58.02-8.4 71.83-32.9 12.66-35.63-28.72-56.15-71.83-57-20.61 0-39.21-5-52.72-13.2-51.54-32.73-2.86-78.79 52.72-76.7 31.17-1.18 62.1-8.89 73.33-36.9v0.1c6.67-34.06-31.01-51.79-73.33-53-20.61 0-39.21-5-52.72-13.2-51.56-32.93-2.85-78.69 52.72-76.7 31.17-1 62.09-9 73.33-36.9v0.1c6.67-34-31.01-51.83-73.33-53-20.61 0-39.21-5-52.72-13.2-51.54-33.05-2.87-78.62 52.72-76.7 30.17-0.81 57.95-8.46 71.83-32.8 12.66-35.47-28.71-56.26-71.83-57-20.61 0-39.21-5.1-52.72-13.2-51.53-33-2.88-78.66 52.72-76.7 30.2-0.87 58.02-8.39 71.83-32.9 12.67-35.44-28.72-56.21-71.83-57-20.61 0-39.21-5-52.72-13.1-51.51-33-2.88-78.67 52.72-76.7 28.8-0.77 54.44-7.68 69.53-28.9 19.65-36.5-25.23-60.59-69.53-61-20.61 0-39.21-5-52.72-13.1-51.49-32.92-2.89-78.7 52.72-76.7 30.94-1 62.19-9.18 73.33-36.9v0.9c1.79-5.74 1.32-11.13 0-17-6.26-43.75-35.1-58.42-73.33-37-24.85 12.63-53.37 18.65-73.22 35.8h-0.1l-1.3 1.3c12.54-17.38 13.3-48.23 20.4-74.5 3-10.3 4.4-20.1 3.3-29-1.53-14.33-10.86-26.2-23.5-33.5-5.67-4.26-10.35-9.09-17.41-10.8"/>
					<path fill-rule="evenodd" class="s2" d="m3255.07 83.52c-30.3 2.43-46.08 35.25-46.92 74.5 0 20.5-5.2 39.1-13.7 52.6-35.31 52.15-81.78 2.18-80.03-52.6-0.52-30.86-10.79-63.17-38.52-73.3-35.01-7.46-54.91 32.5-55.42 73.3 0 20.5-5.2 39.1-13.7 52.6-35.26 52.14-81.8 2.19-80.03-52.6-0.55-30.88-10.76-63.15-38.52-73.3-35.01-7.45-54.89 32.49-55.42 73.29 0 20.51-5.2 39.11-13.7 52.61-35.17 52.14-81.89 2.16-80.13-52.6-0.54-30.91-10.58-63.14-38.41-73.3-35.08-7.44-54.85 32.49-55.42 73.28 0 20.51-5.21 39.11-13.71 52.61-9.91 16.54-27.83 27.11-45.72 19.1-48.8-26-22.5-85.6-48.11-124.4-10.01-16.62-27.8-27.07-45.82-19.1-48.69 26-22.41 85.62-48.02 124.4-10 16.54-27.82 27.1-45.72 19.1-48.82-26.08-22.5-85.61-48.11-124.4-9.48-15.22-24.45-25.44-41.62-20.6-23.59 7.62-38.09 37.07-38.51 73.29-0.5 31.51-11.87 67.57-42.72 74.11-33.01 2-50.18-34.15-51.12-74.1 0-20.6-5.2-39.2-13.7-52.7-35.11-52.14-82.03-2.19-80.13 52.7-1.25 94.69-89.83 102.76-93.84 0 0.58-35-19.9-86.1-59.52-71.8-48.63 26-22.47 85.75-48.02 124.4-10 16.55-27.75 27.11-45.71 19.1-19.81-8.7-34.41-37.5-34.41-71.7 0.38-33.56-17.66-81.66-55.32-73.3-23.75 7.63-38.02 37.08-38.52 73.3 0.54 34.86-19.87 86-59.42 71.71-48.75-26-22.59-85.79-48.12-124.41-10.14-16.53-27.74-27.08-45.81-19.1-19.81 8.7-34.32 37.6-34.32 71.8 0 20.5-5.2 39.1-13.7 52.6-10.17 16.62-27.73 27.07-45.82 19.1-19.71-8.7-34.31-37.5-34.31-71.7-0.55-31.51-11.82-67.56-42.62-74.2-33.51-2-50.1 34.07-51.22 74.2 0 20.5-5.2 39.1-13.7 52.6-34.72 52-82.11 2.33-80.13-52.6-1-94.51-89.93-103.17-93.84 0 0.45 34.87-19.92 86.1-59.52 71.7-19.7-8.7-34.31-37.5-34.31-71.7 0-20.6-5.2-39.2-13.7-52.7-10.24-16.53-27.68-27.08-45.82-19.1-19.81 8.7-34.34 37.6-34.34 71.79 0 20.5-5.31 39.1-13.71 52.6-34.64 52-82.15 2.35-80.13-52.6-0.9-30.12-9.27-58.93-34.31-71.8-37.26-13.08-58.92 29.85-59.49 71.8 0 20.5-5.3 39.1-13.71 52.6-10.41 16.62-27.59 27.08-45.81 19.1-19.71-8.7-34.32-37.5-34.32-71.7 0-20.6-5.2-39.2-13.7-52.7-8.37-12.76-18.75-21.54-33.21-21.8-31.15 2.5-45.48 35.27-46.92 74.5 0 20.5-5.3 39.1-13.71 52.6-10.45 16.62-27.56 27.08-45.81 19.1-19.81-8.7-34.35-37.49-34.35-71.7 0-20.6-5.2-39.2-13.7-52.7-8.3-12.76-18.69-21.51-33.18-21.79-31.2 2.43-45.43 35.26-46.92 74.5 0 20.5-5.3 39.1-13.71 52.6-10.48 16.62-27.54 27.08-45.81 19.1-19.81-8.7-34.32-37.5-34.32-71.7 0-20.6-5.2-39.2-13.7-52.7-9.8-15.17-24.27-25.45-41.75-20.6-15.17 5.72-33.42 12.53-40.41 27.8-11.54 20.43 7.14 52.43 12.1 74.4 3.86 16.39 11.01 34.9 19.61 45.5-18.26-14.41-47.89-18.53-74.53-28.5-18.52-7.28-37.22-10.43-52.72 2.1q-1.77 1.54-3.39 3.23-1.62 1.7-3.08 3.53-1.46 1.84-2.75 3.8-1.28 1.97-2.38 4.04c-3.2 5.4-5.7 14.5-7.5 16.8-13.08 36.26 30.34 56.85 71.82 57.3 33.62-0.64 86.27 18.47 71.83 57-25.87 46.4-86.11 21.74-124.55 46-16.27 9.57-27.11 26.29-19.1 43.8 8.8 19 37.61 32.9 71.82 32.9 29.89 0.69 58.57 8.73 71.83 32.9 13.01 36-30.58 56.51-71.83 57-20.6 0-39.21 5-52.72 13.1-16.26 9.59-27.11 26.27-19.1 43.8 8.8 19 37.61 32.9 71.82 32.9 29.9 0.71 58.55 8.75 71.83 32.9 13.01 36.11-30.57 56.51-71.83 57-29.9 0.73-58.55 8.66-71.82 32.8-13.01 36.21 30.46 56.46 71.82 57 20.61 0 39.22 5.1 52.72 13.2 52.55 33.93 1.14 78.71-52.72 76.7-33.62-0.65-86.27 18.5-71.82 57 25.8 46.34 86.25 21.8 124.54 46 16.3 9.61 27.13 26.21 19.11 43.8-8.8 19-37.61 32.9-71.83 32.9-30.51 0.83-62.85 9.65-73.32 36.9-7.08 34.53 33.01 52.09 73.32 53 29.91 0.86 58.56 8.58 71.83 32.8 13.23 36-30.85 56.61-71.83 57-31.23 0.39-72.2 12.48-74.52 45v-0.1c2.74 30 35.46 43.74 74.52 45 20.61 0 39.22 5 52.72 13.09 52.54 34.05 1.13 78.66-52.72 76.7-31.14 0.29-72.28 12.6-74.52 45v-0.1c2.74 29.91 35.46 43.81 74.52 45 20.61 0 39.22 5 52.72 13.1 52.54 34.18 1.21 78.61-52.72 76.7-30.68 0.8-62.67 9.63-73.32 36.9-7.16 34.34 33.07 52.27 73.32 53 20.61 0 39.22 5 52.72 13.2 52.6 33.9 1.1 78.66-52.72 76.7-29.87 0.7-58.52 8.7-71.82 32.81-13.01 36.15 30.55 56.49 71.82 57 20.61 0 39.22 5 52.72 13.2 52.57 33.87 1.13 78.73-52.72 76.7-29.9 0.77-58.55 8.64-71.82 32.8-13.01 36.22 30.55 56.46 71.82 57 20.61 0 39.22 5 52.72 13.2 52.54 33.88 1.15 78.73-52.72 76.7-31.29 0.31-72.08 12.37-74.52 44.9v-0.9c-0.34 8.07 4.59 15 6.9 22.4 11.35 29.74 37.42 36.65 67.62 23.4 24.65-10 55.37-13.23 74.53-28.9-15 18.2-18.21 47.86-28.51 74.5-10.84 24.94-9.14 51.3 16.61 64.3 5.5 3.2 14.5 5.7 16.9 7.5q1.45 0.66 2.96 1.16 1.5 0.5 3.05 0.84 1.55 0.34 3.13 0.52 1.58 0.17 3.17 0.18h-0.11c30.3-2.43 46.07-35.26 46.92-74.5 0-20.5 5.2-39.1 13.7-52.6 35.3-52.15 81.78-2.18 80.03 52.6 0.52 30.86 10.77 63.16 38.51 73.3 35.02 7.46 54.91-32.5 55.42-73.3 0-20.5 5.21-39.1 13.71-52.6 35.25-52.14 81.8-2.19 80.03 52.6 0.55 30.88 10.75 63.15 38.51 73.3 35.02 7.45 54.89-32.5 55.42-73.3 0-20.5 5.2-39.1 13.71-52.6 35.17-52.14 81.89-2.17 80.13 52.6 0.54 30.91 10.58 63.14 38.41 73.3 35.07 7.44 54.87-32.49 55.42-73.3 0-20.5 5.2-39.1 13.71-52.6 9.91-16.54 27.83-27.11 45.71-19.1 48.81 26 22.51 85.6 48.12 124.4 10 16.62 27.8 27.07 45.82 19.1 48.68-26 22.41-85.62 48.02-124.4 10-16.54 27.82-27.11 45.71-19.1 48.83 26.08 22.51 85.61 48.12 124.4 9.47 15.21 24.45 25.43 41.61 20.6 23.59-7.63 38.1-37.07 38.52-73.3 0.5-31.5 11.86-67.57 42.71-74.1 33.02-2 50.18 34.15 51.12 74.1 0 20.6 5.21 39.2 13.71 52.7 35.11 52.14 82.03 2.19 80.13-52.7 1.25-94.7 89.83-102.77 93.83 0-0.59 35 19.9 86.11 59.52 71.8 48.63-26 22.46-85.74 48.02-124.4 10.01-16.54 27.75-27.1 45.72-19.1 19.81 8.7 34.41 37.5 34.41 71.7-0.38 33.57 17.66 81.67 55.32 73.3 23.74-7.63 38.02-37.07 38.52-73.3-0.54-34.86 19.86-86 59.42-71.7 48.74 26 22.59 85.79 48.12 124.4 10.14 16.54 27.74 27.09 45.81 19.1 19.81-8.7 34.31-37.6 34.31-71.8 0-20.5 5.21-39.1 13.71-52.6 10.16-16.61 27.73-27.06 45.82-19.1 19.7 8.7 34.31 37.5 34.31 71.7 0.55 31.52 11.81 67.57 42.61 74.2 33.52 2 50.1-34.06 51.22-74.2 0-20.5 5.21-39.1 13.71-52.6 34.71-52 82.11-2.32 80.13 52.6 1.05 94.52 89.93 103.17 93.83 0-0.45-34.87 19.93-86.09 59.52-71.7 19.71 8.7 34.32 37.5 34.32 71.7 0 20.6 5.2 39.2 13.7 52.7 10.24 16.54 27.68 27.09 45.82 19.1 19.81-8.7 34.31-37.6 34.31-71.8 0-20.5 5.3-39.1 13.71-52.6 34.64-52 82.15-2.34 80.13 52.6 0.89 30.13 9.27 58.93 34.31 71.8 37.29 13.1 58.93-29.84 59.52-71.8 0-20.5 5.3-39.1 13.7-52.6 10.42-16.61 27.59-27.07 45.82-19.1 19.71 8.7 34.31 37.5 34.31 71.7 0 20.6 5.21 39.2 13.71 52.7 8.36 12.77 18.75 21.55 33.21 21.8 31.14-2.43 45.47-35.25 46.92-74.5 0-20.5 5.3-39.1 13.7-52.6 10.45-16.61 27.56-27.07 45.82-19.1 19.81 8.7 34.31 37.5 34.31 71.7 0 20.6 5.2 39.2 13.71 52.7 8.38 12.78 18.71 21.53 33.21 21.8 31.2-2.43 45.43-35.25 46.92-74.5 0-20.5 5.3-39.1 13.7-52.6 10.49-16.61 27.54-27.07 45.82-19.1 19.81 8.7 34.31 37.5 34.31 71.7 0 20.6 5.2 39.2 13.71 52.7 9.8 15.17 24.27 25.45 41.71 20.6 15.17-5.71 33.42-12.53 40.42-27.8 11.54-20.42-7.15-52.43-12.11-74.4-3.85-16.38-11-34.9-19.6-45.5 18.25 14.41 47.88 18.53 74.52 28.5 18.53 7.29 37.23 10.43 52.72-2.1q1.77-1.54 3.4-3.23 1.62-1.7 3.08-3.53 1.46-1.84 2.74-3.8 1.29-1.97 2.39-4.04c3.2-5.4 5.7-14.5 7.5-16.8 13.07-36.25-30.34-56.84-71.83-57.3-33.61 0.64-86.26-18.46-71.82-57 25.87-46.4 86.11-21.73 124.54-46 16.31-9.57 27.12-26.26 19.11-43.8-8.8-19-37.61-32.9-71.83-32.9-29.89-0.68-58.56-8.73-71.82-32.9-13.01-36 30.58-56.5 71.82-57 20.61 0 39.22-5 52.72-13.1 16.3-9.59 27.13-26.26 19.11-43.8-8.8-19-37.61-32.9-71.83-32.9-29.89-0.7-58.55-8.75-71.82-32.9-13.01-36.11 30.57-56.51 71.82-57 29.9-0.73 58.55-8.66 71.83-32.8 13-36.21-30.47-56.45-71.83-57-20.61 0-39.21-5.1-52.72-13.2-52.55-33.92-1.14-78.7 52.72-76.7 33.62 0.65 86.27-18.49 71.83-57-25.8-46.33-86.25-21.8-124.55-46-16.29-9.61-27.13-26.2-19.1-43.8 8.8-19 37.61-32.9 71.82-32.9 30.51-0.82 62.86-9.64 73.33-36.9 7.07-34.52-33.01-52.08-73.33-53-29.9-0.85-58.55-8.57-71.82-32.8-13.23-36 30.85-56.61 71.82-57 31.23-0.38 72.21-12.47 74.53-45v0.1c-2.74-30-35.46-43.73-74.53-45-20.61 0-39.21-5-52.72-13.1-52.54-34-1.14-78.66 52.72-76.7 31.14-0.28 72.29-12.6 74.53-45v0.1c-2.74-29.9-35.46-43.8-74.53-45-20.61 0-39.21-5-52.72-13.1-52.54-34.17-1.22-78.6 52.72-76.7 30.68-0.8 62.68-9.62 73.33-36.9 7.14-34.33-33.07-52.26-73.33-53-20.61 0-39.21-5-52.72-13.2-52.6-33.89-1.1-78.65 52.72-76.7 29.9-0.71 58.55-8.67 71.83-32.8 13-36.15-30.55-56.49-71.83-57-20.61 0-39.21-5-52.72-13.2-52.57-33.87-1.14-78.73 52.72-76.7 29.9-0.76 58.55-8.63 71.83-32.8 13-36.21-30.55-56.45-71.83-57-20.61 0-39.21-5-52.72-13.2-52.54-33.88-1.15-78.73 52.72-76.7 31.29-0.3 72.09-12.37 74.53-44.9v0.9c0.34-8.06-4.59-15-6.9-22.4-11.36-29.73-37.43-36.64-67.63-23.4-24.65 10-55.37 13.24-74.52 28.9 15-18.2 18.2-47.86 28.51-74.5 10.84-24.93 9.14-51.29-16.61-64.3-5.5-3.2-14.51-5.7-16.91-7.5q-1.44-0.66-2.95-1.16-1.51-0.5-3.06-0.84-1.55-0.34-3.13-0.51-1.57-0.18-3.16-0.19"/>
					<path fill-rule="evenodd" class="s2" d="m3255.07 84.72c-24.84 8.92-37.95 37.53-38.52 73.3 0 20.5-5.2 39.1-13.7 52.6-36.24 52.95-81.93 0.65-80.13-52.6-0.27-31.59-12.18-67.75-42.62-74.2-33.49-2.43-50.67 35.9-51.24 74.18 0 20.51-5.21 39.11-13.71 52.61-36.01 52.86-82.17 0.6-80.13-52.6-0.31-31.61-12.14-67.73-42.61-74.21-33.53-2.4-50.66 35.9-51.22 74.2 0 20.51-5.2 39.11-13.71 52.61-35.94 52.86-82.19 0.61-80.13-52.6-0.35-31.63-12.1-67.71-42.61-74.21-33.57-2.39-50.64 35.9-51.22 74.2 0 20.51-5.2 39.11-13.71 52.61-36.14 52.89-82.03 0.72-80.13-52.6 1.31-36.55-23.44-90.88-63.72-69.61-43.37 29.08-18.86 84.08-43.82 122.21-36.09 52.88-82.03 0.73-80.13-52.61 0.74-35-20.22-86.21-59.52-71.8-21.37 10.4-33.91 37.8-34.28 71.8 0.25 33.83-17.62 81.45-55.32 73.21-25.17-8.91-37.69-37.55-38.51-73.2 0-20.61-5.21-39.21-13.71-52.71-36.19-52.89-82.03-0.81-80.13 52.7-1.65 95.77-90.23 101.77-93.83 0 1.15-36.59-23.29-90.85-63.73-69.6-43.34 29.09-18.87 84.13-43.81 122.2-11.17 18.57-31.55 28.36-50.02 16.9-43.35-28.95-18.88-84.39-43.82-122.2-11.19-18.64-31.56-28.3-50.01-16.9-17.61 10.7-30.12 37.8-30.12 69.6-0.63 31.66-11.92 67.61-42.71 74.11-33.71 2.3-50.42-36-51.12-74.1 0-20.61-5.2-39.21-13.71-52.71-36.01-52.85-82.03-0.87-80.12 52.7 0.07 33.94-17.42 81.36-55.32 73.21-25.43-8.91-37.52-37.55-38.52-73.21 0-20.6-5.2-39.2-13.7-52.7-35.8-52.81-82.21-0.79-80.13 52.7 0.43 35.06-20.01 86-59.53 71.7-21.67-10.38-33.7-37.77-34.31-71.7 0.2-33.83-17.47-81.48-55.22-73.3-25.64 8.79-37.52 37.55-38.64 73.3 0 20.5-5.3 39.1-13.71 52.6-35.65 52.8-82.24 0.83-80.13-52.6-1.43-95.58-90.19-102.22-93.83 0-1.45 95.35-90.21 102.08-93.84 0-0.91-31-10.47-63.36-38.51-73.3-36.28-7.42-54.61 34.08-55.32 73.3 0.75 36.59-23.01 90.71-63.72 69.5-43.32-29-19.01-84.58-43.82-122.2-11.27-18.56-31.51-28.34-50.02-16.9-43.19 28.94-19 84.46-43.81 122.2-11.45 18.57-31.4 28.37-50.02 16.9-43.29-29-19.01-84.65-43.82-122.2-11.26-18.54-31.47-28.3-49.99-16.89-43.21 29-19 84.48-43.81 122.2-11.47 18.57-31.38 28.37-50.02 16.9-43.23-28.93-19.01-84.77-43.82-122.2-13-22.56-39.67-29.82-57.92-10.7-40.26 23.22-21.46 55.05-15.4 92.3 2.21 14.93 7.62 37.11 14.6 45.5-0.27 0-0.91-0.86-1.3-1.1v-0.1c-18.92-16.15-47.02-22.7-73.33-35.4-38.2-20.64-66.15-8.27-73.32 37.19-7.79 35.06 34.63 53.29 73.32 53.6 35.02-1.11 91.31 21.72 69.53 61.1-28.73 41.35-84.78 18.11-122.25 42-18.13 10.44-28.61 30.14-16.8 47.81 10.7 16.9 37.81 28.9 69.52 28.9 31.15 0.5 67.41 11 74.23 40.9 1.94 32.75-36.49 48.15-74.23 48.9-20.6 0-39.21 5.1-52.72 13.2-18.13 10.46-28.61 30.11-16.8 47.8 10.7 16.9 37.81 28.9 69.52 28.9 30.75 0.61 62.77 9.82 73.33 36.8 7.6 34.69-35.09 52.68-73.33 53-30.72 0.71-62.77 9.87-73.32 36.9-7.59 34.61 35.18 52.67 73.32 53 20.61 0 39.22 5 52.72 13.1 18.21 10.71 28.59 30.07 16.81 47.9-28.61 41.39-84.76 18.33-122.25 42-18.23 10.62-28.54 30.09-16.8 47.9 28.68 41.29 84.77 18.29 122.24 41.9 53.21 34.77-0.55 79-52.72 76.8-31.48 0.32-72.08 12.46-74.52 44.9 2.72 30.52 37.41 43.88 74.52 44.9 30.73 0.84 62.78 9.69 73.33 36.9 7.49 34.85-35.16 52.54-73.33 53-32.82-0.23-81.45 16.15-73.32 53v-0.1c9.27 24.59 37.64 36 73.32 36.9 20.61 0 39.22 5.1 52.72 13.2 53.3 34.71-0.66 78.92-52.72 76.7-32.63-0.34-81.56 16.36-73.32 53v-0.1c9.25 24.47 37.65 36 73.32 36.9 20.61 0 39.22 5.1 52.72 13.2 53.3 34.82-0.58 78.88-52.72 76.7-31.11 0.52-67.3 11-74.22 40.9-2 32.82 36.5 48.18 74.22 48.9 20.61 0 39.22 5.1 52.72 13.2 53.34 35-0.48 78.72-52.72 76.7-31.14 0.55-67.28 11-74.22 40.9-2.24 32.53 36.8 48.42 74.22 49 20.61 0 39.22 5 52.72 13.1 53.29 35.11-0.45 78.68-52.72 76.7-31.16 0.65-67.27 11-74.22 40.9-2.2 32.63 36.79 48.37 74.22 49 20.61 0 39.22 5 52.72 13.1 53.29 35-0.47 78.83-52.72 76.8-32.71-0.26-81.5 16.16-73.32 52.9v-0.9c1.72 6.2 5.63 11.2 9.9 16 12.61 24.1 36.85 30.34 63.42 21.6 23.63-7 56.44-7.71 74.53-20.8q-0.13 0.18-0.28 0.34-0.14 0.17-0.29 0.34-0.15 0.16-0.31 0.32-0.15 0.15-0.32 0.3v0.1c-16.56 18.62-22.51 47-35.51 73.2-5.2 10.3-8.71 20.1-9.61 29-2 27.06 19.07 39.66 46.92 44.3q2.04 0.59 4.14 0.89 2.1 0.3 4.21 0.3 2.12 0 4.22-0.3 2.1-0.3 4.14-0.89h-0.11c24.83-8.92 37.94-37.53 38.51-73.3 0-20.5 5.2-39.1 13.71-52.6 36.23-52.95 81.93-0.66 80.13 52.6 0.27 31.59 12.18 67.74 42.61 74.2 33.49 2.42 50.68-35.9 51.22-74.2 0-20.5 5.2-39.1 13.71-52.6 36.01-52.87 82.17-0.6 80.13 52.6 0.31 31.61 12.14 67.73 42.61 74.2 33.52 2.41 50.66-35.9 51.22-74.2 0-20.5 5.2-39.1 13.7-52.6 35.95-52.86 82.19-0.61 80.13 52.6 0.34 31.63 12.11 67.71 42.62 74.2 33.56 2.39 50.64-35.89 51.22-74.2 0-20.5 5.2-39.1 13.7-52.6 36.14-52.9 82.03-0.72 80.13 52.6-1.31 36.55 23.45 90.87 63.73 69.6 43.36-29.07 18.84-84.07 43.81-122.2 36.09-52.89 82.03-0.73 80.13 52.6-0.73 35 20.23 86.21 59.52 71.8 21.4-10.39 33.91-37.77 34.32-71.8-0.25-33.82 17.61-81.44 55.32-73.2 25.17 8.91 37.69 37.55 38.51 73.2 0 20.6 5.2 39.2 13.71 52.7 36.19 52.9 82.03 0.81 80.12-52.7 1.66-95.76 90.24-101.77 93.84 0-1.15 36.6 23.28 90.85 63.72 69.6 43.35-29.08 18.88-84.12 43.82-122.2 11.16-18.57 31.54-28.35 50.02-16.9 43.34 29 18.87 84.4 43.81 122.2 11.2 18.64 31.56 28.31 50.02 16.9 17.61-10.7 30.11-37.8 30.11-69.6 0.63-31.65 11.93-67.6 42.72-74.1 33.71-2.3 50.42 35.95 51.12 74.1 0 20.6 5.2 39.2 13.7 52.7 36.02 52.86 82.03 0.87 80.13-52.7-0.07-33.93 17.42-81.35 55.32-73.2 25.43 8.91 37.52 37.55 38.52 73.2 0 20.6 5.2 39.2 13.7 52.7 35.79 52.82 82.21 0.8 80.13-52.7-0.43-35.06 20.01-86 59.52-71.7 21.68 10.39 33.7 37.78 34.31 71.7-0.2 33.84 17.48 81.49 55.22 73.3 25.65-8.78 37.52-37.53 38.62-73.3 0-20.5 5.3-39.1 13.7-52.6 35.66-52.79 82.24-0.82 80.13 52.6 1.43 95.58 90.2 102.23 93.84 0 1.45-95.34 90.21-102.07 93.83 0 0.91 31 10.48 63.36 38.52 73.3 36.28 7.43 54.61-34.07 55.32-73.3-0.76-36.59 23-90.71 63.72-69.5 43.32 29.05 18.95 84.58 43.82 122.2 11.27 18.56 31.51 28.34 50.01 16.9 43.2-28.94 19.01-84.45 43.82-122.2 11.44-18.56 31.39-28.36 50.02-16.9 43.28 29 19.01 84.66 43.81 122.2 11.3 18.56 31.5 28.35 50.02 16.9 43.22-29 19.01-84.48 43.82-122.2 11.46-18.56 31.38-28.36 50.02-16.9 43.22 28.93 19 84.78 43.81 122.2 13.01 22.57 39.68 29.82 57.92 10.7 40.27-23.22 21.46-55 15.41-92.3-2.21-14.92-7.62-37.1-14.6-45.5 0.27 0.05 0.91 0.87 1.3 1.1v0.1c18.91 16.15 47.01 22.7 73.32 35.4 38.21 20.65 66.16 8.28 73.33-37.2 7.78-35-34.63-53.28-73.33-53.6-35.01 1.12-91.3-21.72-69.52-61.1 28.73-41.34 84.78-18.1 122.24-42 18.16-10.43 28.61-30.12 16.81-47.8-10.71-16.9-37.82-28.9-69.53-28.9-31.14-0.5-67.41-11-74.22-40.9-1.95-32.74 36.49-48.15 74.22-48.9 20.61 0 39.22-5.1 52.72-13.2 18.16-10.45 28.61-30.1 16.81-47.8-10.71-16.9-37.82-28.9-69.53-28.9-30.74-0.6-62.76-9.81-73.32-36.8-7.61-34.68 35.09-52.68 73.32-53 30.72-0.7 62.78-9.86 73.33-36.9 7.58-34.6-35.19-52.66-73.33-53-20.61 0-39.21-5-52.72-13.1-18.2-10.71-28.59-30.06-16.8-47.9 28.61-41.38 84.76-18.32 122.24-42 18.24-10.61 28.54-30.08 16.81-47.9-28.71-41.26-84.77-18.23-122.25-41.9-53.21-34.77 0.55-79 52.72-76.8 31.48-0.31 72.09-12.46 74.53-44.9-2.72-30.51-37.41-43.87-74.53-44.9-30.72-0.83-62.77-9.68-73.32-36.9-7.5-34.84 35.16-52.53 73.32-53 32.82 0.23 81.45-16.15 73.33-53v0.1c-9.28-24.58-37.64-35.95-73.33-36.9-20.61 0-39.21-5.1-52.72-13.2-53.3-34.7 0.66-78.92 52.72-76.7 32.63 0.34 81.56-16.36 73.33-53v0.1c-9.26-24.47-37.65-36-73.33-36.9-20.61 0-39.21-5.1-52.72-13.2-53.3-34.82 0.58-78.87 52.72-76.7 31.11-0.52 67.31-11 74.23-40.9 2-32.81-36.5-48.17-74.23-48.9-20.61 0-39.21-5.1-52.72-13.2-53.34-35 0.48-78.71 52.72-76.7 31.13-0.55 67.28-11 74.23-40.9 2.23-32.53-36.8-48.42-74.23-49-20.61 0-39.21-5-52.72-13.1-53.29-35.1 0.45-78.68 52.72-76.7 31.15-0.64 67.28-11 74.23-40.9 2.2-32.62-36.79-48.37-74.23-49-20.61 0-39.21-5-52.72-13.1-53.29-35 0.47-78.82 52.72-76.8 32.71 0.27 81.5-16.15 73.33-52.9v0.9c-1.72-6.19-5.63-11.2-9.9-16-12.61-24.09-36.86-30.34-63.43-21.6-23.63 7-56.45 7.71-74.52 20.8q0.13-0.17 0.28-0.34 0.14-0.17 0.29-0.33 0.15-0.17 0.31-0.32 0.15-0.16 0.32-0.31v-0.1c16.55-18.61 22.5-47 35.51-73.2 5.2-10.3 8.7-20.1 9.6-29 2-27.05-19.06-39.65-46.91-44.3q-2.04-0.59-4.14-0.89-2.1-0.3-4.22-0.3-2.12 0-4.22 0.3-2.1 0.3-4.13 0.89"/>
					<path fill-rule="evenodd" class="s2" d="m3255.07 88.42c-43.44 29.44-18.83 84.3-43.82 122.2-36.53 53.59-82.35-1-80.12-52.6 1.16-36.58-23.43-90.84-63.63-69.6h-0.1c-43.43 29.22-18.84 84.36-43.82 122.2-36.53 53.59-82.35-1-80.12-52.6 1.17-36.58-23.42-90.84-63.63-69.6h-0.1c-43.42 29.22-18.84 84.36-43.81 122.2-36.56 53.57-82.36-0.89-80.12-52.6 1.16-36.59-23.43-90.84-63.64-69.6h-0.1c-43.55 29.38-18.7 84.38-43.9 122.2-36.59 53.63-82.17-0.86-80.03-52.6 1.16-36.59-23.43-90.84-63.64-69.6h-0.1c-43.55 29.38-18.7 84.38-43.9 122.2-36.6 53.63-82.16-0.85-80.03-52.6 1.16-36.59-23.43-90.84-63.64-69.6h-0.1c-43.55 29.38-18.7 84.38-43.91 122.2-36.58 53.63-82.15-0.85-80.03-52.6 1.16-36.58-23.43-90.85-63.63-69.6h-0.1c-43.56 29.38-18.71 84.38-43.92 122.2-36.58 53.63-82.15-0.85-80.03-52.6 1.16-36.58-23.43-90.85-63.63-69.6h-0.1c-43.56 29.39-18.71 84.39-43.92 122.21-36.58 53.63-82.15-0.85-80.03-52.61 1.17-36.57-23.42-90.84-63.62-69.59h-0.1c-43.47 29.32-18.79 84.29-43.92 122.21-36.58 53.63-82.15-0.85-80.03-52.61 1.17-36.57-23.42-90.84-63.62-69.6h-0.1c-43.47 29.32-18.79 84.29-43.92 122.2-36.58 53.64-82.16-0.84-80.03-52.6 1.17-36.57-23.41-90.84-63.62-69.6h-0.1c-43.47 29.32-18.79 84.29-43.92 122.2-36.58 53.64-82.22-0.84-80.02-52.6 1.17-36.57-23.43-90.84-63.63-69.6h-0.1c-43.46 29.32-18.79 84.29-43.91 122.2-36.59 53.64-82.22-0.84-80.03-52.6 1.17-36.57-23.43-90.84-63.63-69.6h-0.1c-43.44 29.3-18.76 84.27-43.92 122.18-36.59 53.64-82.22-0.84-80.03-52.6 1.15-36.66-23.42-90.82-63.73-69.6-43.47 29.32-18.78 84.29-43.91 122.2-36.59 53.64-82.23-0.84-80.03-52.6 1.15-36.66-23.42-90.82-63.72-69.6-43.45 29.32-18.71 84.29-43.89 122.2-36.58 53.64-82.23-0.84-80.03-52.6 1.15-36.65-23.43-90.83-63.72-69.6-43.48 29.32-18.8 84.29-43.92 122.2-36.59 53.64-82.23-0.84-80.03-52.6 1.15-36.65-23.43-90.83-63.72-69.6h-0.3c-7.23 4.14-11.77 11.44-17.24 17.9-13.55 13.85-16 31.74-12.2 51.7 4.1 22.14 2.09 58.23 12.7 74.4-19.81-20.06-47.67-28.44-74.73-44.9-39.81-25.89-69.67-14.32-74.19 37.4-1.26 10.32 0.5 20.92 7.6 28.9 30.29 36.05 83.29 14.88 119.34 38 18.69 10.79 28.39 30.21 16.81 47.8-28.81 41.58-84.84 18.25-122.25 42-18.67 11-28.4 30.22-16.8 47.9 12.67 18.49 37.92 28.35 69.52 28.8 31.38 0.42 67.31 11.19 74.23 40.9 2.13 33.44-38.29 48.49-74.23 49-37.01-1.79-95.95 25.49-66.62 65 30.21 35.95 83.23 15 119.34 38 54.17 35.82-2.16 78.94-52.72 76.7-37.01-1.76-95.96 25.48-66.62 65 12.2 14.7 37.41 24.8 66.62 24.8 31.38 0.66 67.32 11.07 74.23 40.9 2.07 33.66-38.17 48.38-74.23 49-20.6 0-39.21 5-52.72 13.2-18.68 10.87-28.41 30.13-16.8 47.8 28.93 41.54 84.85 18.28 122.24 42 20.61 11.55 29.26 34.28 13.91 51.9-30.18 35.93-83.46 15-119.35 38-17.13 10.33-26.83 26.4-19.13 43.8 12.28 22.47 38.24 31.9 71.82 32.9 31.44 0.74 67.34 10.91 74.23 40.9 2 33.78-38.2 48.17-74.23 48.9-20.6 0-39.21 5-52.72 13.2-18.68 10.89-28.36 30.17-16.8 47.9v-0.1c28.74 41.7 84.95 18.12 122.24 42.1 54.18 35.82-2.21 78.89-52.72 76.6-35.38-1-91.11 21.71-69.52 61.1v-0.1c28.75 41.71 84.92 18.11 122.24 42.1 54.2 35.86-2.27 78.91-52.72 76.7-31.95 0.38-71.82 12.38-74.52 44.9 3 31.34 38.71 44 74.52 44.9 20.61 0 39.22 5 52.72 13.2 54.2 35.82-2.25 78.93-52.72 76.7-32.01 0.43-71.8 12.33-74.52 44.9 2.67 31.1 39.01 44.12 74.52 44.9 20.61 0 39.22 5 52.72 13.2 54.16 35.79-2.15 79-52.72 76.7-31.91 0.49-71.77 12.33-74.52 44.9 2.71 31.18 39.01 44.08 74.52 44.9 20.61 0 39.22 5.1 52.72 13.2 54.15 35.73-2.13 79-52.72 76.7-35.32-1-91.16 21.56-69.52 61v-0.9c4 7.26 11.33 11.81 17.91 17.2 13.63 13.63 31.76 16 51.61 12.2 22.3-4.13 58.12-2 74.53-12.7-20.25 19.76-28.46 47.61-44.91 74.7-6.31 10.3-10.91 20.1-12.71 29-5.33 29.5 18.6 42.29 50.12 45.2 8.46 0.83 17.53 0.35 24.81-4.6h-0.11c43.43-29.44 18.82-84.3 43.8-122.2 36.55-53.6 82.36 1 80.13 52.6-1.16 36.58 23.43 90.83 63.63 69.6h0.1c43.43-29.23 18.84-84.36 43.81-122.2 36.55-53.6 82.36 1 80.13 52.6-1.16 36.58 23.43 90.83 63.64 69.6h0.09c43.43-29.23 18.84-84.36 43.81-122.2 36.57-53.57 82.36 0.88 80.13 52.6-1.16 36.58 23.43 90.84 63.62 69.6h0.1c43.57-29.38 18.72-84.38 43.92-122.2 36.58-53.64 82.17 0.85 80.03 52.6-1.16 36.58 23.43 90.84 63.62 69.6h0.1c43.57-29.38 18.72-84.38 43.92-122.2 36.59-53.64 82.16 0.84 80.03 52.6-1.16 36.58 23.43 90.84 63.62 69.6h0.1c43.57-29.38 18.72-84.38 43.92-122.2 36.59-53.64 82.16 0.84 80.03 52.6-1.16 36.57 23.43 90.85 63.62 69.6h0.11c43.56-29.38 18.71-84.38 43.91-122.2 36.59-53.64 82.16 0.84 80.03 52.6-1.16 36.58 23.42 90.85 63.62 69.6h0.11c43.56-29.38 18.71-84.38 43.91-122.2 36.59-53.64 82.16 0.84 80.02 52.6-1.16 36.57 23.43 90.85 63.64 69.6h0.1c43.46-29.32 18.79-84.28 43.91-122.2 36.59-53.64 82.15 0.85 80.03 52.6-1.16 36.57 23.43 90.85 63.64 69.6h0.1c43.46-29.32 18.78-84.28 43.91-122.2 36.59-53.64 82.15 0.85 80.03 52.6-1.16 36.57 23.43 90.85 63.64 69.6h0.1c43.46-29.32 18.78-84.28 43.91-122.2 36.59-53.63 82.22 0.85 80.03 52.6-1.17 36.57 23.42 90.85 63.62 69.6h0.1c43.47-29.32 18.79-84.28 43.92-122.2 36.58-53.63 82.22 0.85 80.03 52.6-1.17 36.57 23.42 90.85 63.62 69.6h0.1c43.47-29.32 18.79-84.28 43.92-122.2 36.58-53.63 82.22 0.85 80.03 52.6-1.15 36.67 23.42 90.82 63.72 69.6 43.47-29.31 18.79-84.28 43.92-122.2 36.58-53.63 82.22 0.85 80.03 52.6-1.15 36.67 23.42 90.82 63.72 69.6 43.47-29.31 18.79-84.28 43.92-122.2 36.58-53.63 82.22 0.85 80.03 52.6-1.15 36.66 23.43 90.84 63.72 69.6 43.48-29.31 18.79-84.28 43.92-122.2 36.59-53.63 82.22 0.85 80.03 52.6-1.15 36.66 23.42 90.84 63.72 69.6h0.3c7.22-4.13 11.76-11.43 17.21-17.9 13.55-13.84 16-31.73 12.2-51.7-4.1-22.14-2.09-58.23-12.7-74.4 19.8 20.07 47.66 28.44 74.72 44.9 39.84 25.9 69.71 14.32 74.23-37.4 1.26-10.31-0.5-20.91-7.6-28.9-30.29-36.05-83.29-14.87-119.35-38-18.68-10.79-28.39-30.2-16.8-47.8 28.81-41.57 84.84-18.24 122.24-42 18.67-11 28.4-30.22 16.81-47.9-12.66-18.48-37.93-28.34-69.53-28.8-31.37-0.41-67.3-11.19-74.22-40.9-2.14-33.44 38.29-48.48 74.22-49 37.02 1.8 95.96-25.48 66.63-65-30.21-35.94-83.23-15-119.35-38-54.17-35.81 2.15-78.93 52.72-76.7 37.02 1.77 95.97-25.47 66.63-65-12.21-14.7-37.42-24.8-66.63-24.8-31.37-0.65-67.31-11.06-74.22-40.9-2.08-33.65 38.17-48.37 74.22-49 20.61 0 39.22-5 52.72-13.2 18.69-10.87 28.4-30.13 16.81-47.8-28.93-41.53-84.85-18.28-122.25-42-20.61-11.55-29.26-34.27-13.9-51.9 30.18-35.92 83.46-15 119.34-38 17.19-10.32 26.84-26.39 19.11-43.8-12.29-22.47-38.25-31.89-71.83-32.9-31.43-0.74-67.34-10.9-74.22-40.9-2.01-33.77 38.2-48.17 74.22-48.9 20.61 0 39.22-5 52.72-13.2 18.69-10.88 28.36-30.16 16.81-47.9v0.1c-28.74-41.69-84.95-18.11-122.25-42.1-54.18-35.81 2.21-78.88 52.72-76.6 35.39 1 91.12-21.7 69.53-61.1v0.1c-28.75-41.71-84.92-18.1-122.25-42.1-54.21-35.85 2.27-78.91 52.72-76.7 31.95-0.38 71.83-12.37 74.53-44.9-3-31.33-38.71-44-74.53-44.9-20.61 0-39.21-5-52.72-13.2-54.2-35.81 2.25-78.92 52.72-76.7 32.01-0.42 71.81-12.33 74.53-44.9-2.67-31.09-39.01-44.12-74.53-44.9-20.61 0-39.21-5-52.72-13.2-54.17-35.78 2.15-78.95 52.72-76.7 31.91-0.48 71.78-12.33 74.53-44.9-2.71-31.17-39.01-44.07-74.53-44.9-20.61 0-39.21-5.1-52.72-13.2-54.15-35.72 2.13-79 52.72-76.7 35.33 1 91.17-21.55 69.53-61v0.9c-4-7.25-11.34-11.8-17.91-17.2-13.63-13.62-31.76-15.95-51.62-12.2-22.3 4.14-58.11 2-74.52 12.7 20.23-19.76 28.45-47.61 44.91-74.7 6.3-10.3 10.91-20.1 12.71-29 5.33-29.49-18.6-42.28-50.12-45.2-8.47-0.83-17.53-0.35-24.81 4.6"/>
					<path fill-rule="evenodd" class="s2" d="m3255.07 95.11c-13.11 13.2-21.71 36.5-21.71 62.9 0.21 34-17.75 81.4-55.22 73.2h-0.1c-27.01-9.72-37.66-40.2-38.51-73.2 0.27-34.16-17.73-81.46-55.22-73.3h-0.1c-6.42 1.81-12.01 5.75-16.71 10.4h-0.1c-13.1 13.2-21.71 36.5-21.71 62.9-0.26 32.55-13.85 72.14-46.91 74.41-32.24-2-46.52-40.38-46.92-74.41 0.26-34.17-17.72-81.46-55.22-73.3h-0.1c-6.41 1.81-12.01 5.75-16.71 10.4h-0.1c-13.1 13.2-21.71 36.5-21.71 62.9-0.26 32.55-13.85 72.14-46.9 74.41-32.25-2-46.53-40.38-46.93-74.41 0.25-34.18-17.68-81.41-55.22-73.3h-0.1c-6.41 1.81-12.01 5.75-16.71 10.4h-0.1c-13.1 13.2-21.71 36.5-21.71 62.9-0.26 32.55-13.85 72.14-46.9 74.41-32.24-2-46.53-40.38-46.93-74.41 0.25-34.18-17.68-81.41-55.22-73.3h-0.1q-2.38 0.74-4.64 1.77-2.27 1.04-4.38 2.36-2.12 1.31-4.04 2.89-1.93 1.57-3.65 3.38h-0.1c-13.1 13.2-21.7 36.5-21.7 62.9-0.26 32.55-13.86 72.14-46.91 74.41-32.24-2-46.53-40.38-46.93-74.41 0.25-34.18-17.68-81.41-55.22-73.3h-0.1q-2.38 0.74-4.64 1.77-2.27 1.04-4.38 2.36-2.11 1.31-4.04 2.89-1.93 1.57-3.65 3.38h-0.1c-13.1 13.2-21.7 36.5-21.7 62.9-0.26 32.55-13.86 72.14-46.92 74.41-32.23-2-46.52-40.38-46.92-74.41 0.25-34.18-17.67-81.41-55.22-73.3h-0.1q-2.38 0.73-4.64 1.77-2.27 1.03-4.38 2.35-2.12 1.31-4.05 2.89-1.92 1.58-3.63 3.39h-0.1c-13.11 13.2-21.71 36.5-21.71 62.9-0.26 32.55-13.86 72.14-46.92 74.41-32.23-2-46.52-40.38-46.92-74.41 0.25-34.18-17.67-81.41-55.22-73.3h-0.1q-2.38 0.73-4.64 1.77-2.27 1.03-4.38 2.35-2.12 1.31-4.05 2.89-1.92 1.58-3.63 3.39h-0.1c-33.23 34.21-11.34 78.73-35.52 115.5-10.14 16.16-24.94 25.22-41.51 20.6-27.01-9.73-37.66-40.19-38.52-73.2 0.25-34.18-17.67-81.41-55.22-73.3h-0.1c-6.38 1.75-12 5.67-16.7 10.4h-0.1c-33.22 34.21-11.34 78.73-35.51 115.5-10.15 16.16-24.94 25.22-41.52 20.6-27.01-9.73-37.66-40.19-38.51-73.2 0.25-34.18-17.68-81.41-55.22-73.3h-0.1c-6.39 1.75-12.01 5.67-16.71 10.4h-0.1c-13.11 13.2-21.71 36.5-21.71 62.9-0.27 32.24-14 72.39-46.92 74.41-32.22-2-46.51-40.39-46.91-74.41-0.28-32.43-13.89-72.45-46.92-74.5-9.58-0.09-18.49 4.79-25.11 11.6h-0.1c-13.1 13.2-21.71 36.5-21.71 62.9-0.27 32.24-14 72.39-46.91 74.41-32.23-2-46.52-40.39-46.92-74.41-0.28-32.43-13.89-72.45-46.92-74.5-9.59-0.09-18.49 4.79-25.11 11.6h-0.1c-13.1 13.2-21.71 36.5-21.71 62.9-0.24 32.24-14 72.38-46.91 74.41-32.23-2-46.53-40.39-46.92-74.41-0.28-32.43-13.89-72.45-46.92-74.5-9.59-0.09-18.48 4.79-25.11 11.6h-0.1c-13.1 13.2-21.7 36.5-21.7 62.9-0.24 32.24-14.06 72.38-46.92 74.41-32.23-2-46.52-40.39-46.92-74.41-0.29-32.43-13.88-72.45-46.92-74.5-9.67-0.11-18.42 4.87-25.21 11.6-13.1 13.2-21.7 36.5-21.7 62.9-0.24 32.24-14.01 72.38-46.92 74.41-32.01-1.8-46.63-40.59-46.92-74.41-0.29-32.43-13.88-72.45-46.92-74.5-9.67-0.11-18.42 4.87-25.2 11.6-13.11 13.2-21.74 36.5-21.74 62.89-0.22 32.24-14.12 72.37-46.92 74.41-32.01-1.79-46.63-40.59-46.92-74.41-0.29-32.43-13.88-72.45-46.91-74.5-9.68-0.11-18.43 4.87-25.21 11.6-13.11 13.2-21.71 36.5-21.71 62.9-0.22 32.24-14.12 72.37-46.92 74.41-32.01-1.78-46.63-40.6-46.92-74.41-0.29-32.43-13.88-72.45-46.91-74.5-9.68-0.11-18.44 4.87-25.21 11.6h-0.3c-6.3 6.6-11.61 15.7-15.41 26.5-5.2 10.8-6.9 23.2-5.8 36.4 0.7 10.2 0.2 20-0.1 28.9-0.55 16.52-1.45 32.28 4.8 45.5-20.46-22.64-47.94-33.76-74.93-53.1-16.91-11.63-34.71-23-52.72-15-21.42 12.03-24.1 46.55-20.27 70.11 10.58 25.56 40.48 35.41 73.02 36.2 20.61 0 39.22 5 52.72 13.1 23.34 13.43 29.56 38.49 10.11 55.9-34.12 31.75-78.9 11-115.55 34-17.49 10.52-26.74 26.69-19.13 43.8 12.93 23.31 39.5 31.93 71.82 32.9 20.61 0 39.22 5 52.72 13.1 18.96 11.29 28.28 30.34 16.81 47.9-14.27 20-38.48 27.93-69.53 28.8-20.6 0-39.21 5.1-52.72 13.2-17.46 10.52-26.71 26.69-19.1 43.8 13 23.35 39.52 31.89 71.85 32.89 33.02-0.33 81.58 16.49 73.33 52.9v0.1c-10.09 26.12-40.62 36.1-73.33 36.9-20.6 0-39.21 5-52.72 13.1-17.49 10.64-26.74 26.67-19.13 43.81 12.93 23.3 39.5 31.94 71.82 32.9 32.83-0.37 81.63 16.61 73.33 52.9v0.1c-10.1 26.14-40.62 36.09-73.33 36.9-33.12-0.25-81.48 16.32-73.32 52.9v0.1c9.88 25.87 40.9 36.09 73.32 36.8 20.61 0 39.22 5 52.72 13.2 17.39 10.48 26.77 26.64 19.11 43.8-13.16 23.43-39.29 31.86-71.83 32.9-33.11-0.25-81.49 16.32-73.32 52.9v0.1c9.87 25.87 40.9 36.09 73.32 36.8 20.61 0 39.22 5.1 52.72 13.2 23.42 13.43 29.56 38.32 10.11 55.9-34.02 31.72-79.03 11-115.55 33.9-23.49 13.44-29.47 38.53-10.1 56v-0.1c13.21 12.5 36.41 20.8 62.82 20.8 31.83 0.34 72.11 12.78 74.53 45-2.22 31.26-41.21 44.55-74.53 44.9-31.55 0.21-72.36 12.91-74.52 44.9 0 9.4 4.92 17.88 11.7 24.2v-0.1c33.91 31.88 79.03 11.1 115.54 34 23.35 13.33 29.55 38.53 10.11 55.9-34.02 31.72-78.97 11-115.55 34-23.51 13.3-29.47 38.49-10.1 55.9 34.01 31.72 79.03 11 115.54 33.9 23.34 13.41 29.56 38.51 10.11 55.9-34.02 31.73-78.94 11-115.55 34-23.42 13.25-29.51 38.58-10.1 55.9 13.21 12.5 36.41 20.8 62.82 20.8 32.95-0.35 81.6 16.52 73.33 52.9v0.1c-9.88 25.87-40.9 36.09-73.33 36.8-20.6 0-39.21 5.1-52.72 13.2-17.46 10.63-26.71 26.66-19.1 43.8 12.93 23.3 39.5 31.94 71.82 32.9 32.83-0.37 81.63 16.61 73.33 52.9v0.1c-10.09 26.12-40.63 36.09-73.33 36.9-20.6 0-39.21 5-52.72 13.1-23.4 13.37-29.54 38.55-10.1 55.9v-0.9c6.6 6.4 15.71 11.7 26.41 15.4 10.8 5.2 23.21 6.9 36.41 5.8 10.31-0.7 20.11-0.2 29.01 0.1 16.38 0.6 32.35 1.52 45.52-4.8q-1.53 1.4-3.01 2.84-1.48 1.45-2.92 2.93-1.44 1.49-2.83 3.02-1.4 1.54-2.74 3.11c-15.01 17.85-26.07 41.12-41.62 63-7.4 10.3-13.1 20.1-15.8 29-12.18 36.66 32.13 47.88 61.42 45.2q1.18-0.06 2.36-0.17 1.19-0.11 2.36-0.26 1.18-0.15 2.35-0.34 1.17-0.2 2.33-0.43 2.21-0.77 4.3-1.81 2.09-1.04 4.04-2.33 1.95-1.29 3.72-2.81 1.78-1.52 3.35-3.25l-0.12 0.11c13.1-13.2 21.71-36.5 21.71-62.9-0.2-34 17.74-81.39 55.22-73.2h0.1c27.01 9.73 37.67 40.2 38.52 73.2-0.27 34.17 17.73 81.47 55.21 73.3h0.1c6.42-1.8 12-5.74 16.71-10.4h0.1c13.1-13.2 21.7-36.5 21.7-62.9 0.27-32.55 13.87-72.13 46.92-74.4 32.24 2 46.52 40.38 46.93 74.4-0.26 34.18 17.72 81.46 55.21 73.3h0.1c6.42-1.8 12-5.74 16.71-10.4h0.1c13.1-13.2 21.7-36.5 21.7-62.9 0.27-32.55 13.87-72.13 46.92-74.4 32.24 2 46.52 40.38 46.92 74.4-0.24 34.19 17.67 81.42 55.22 73.3h0.1c6.42-1.8 12-5.74 16.7-10.4h0.1c13.11-13.2 21.71-36.5 21.71-62.9 0.27-32.55 13.87-72.13 46.92-74.4 32.24 2 46.52 40.38 46.92 74.4-0.24 34.19 17.67 81.42 55.22 73.3h0.1q2.38-0.74 4.64-1.77 2.27-1.03 4.38-2.35 2.12-1.32 4.04-2.89 1.93-1.58 3.64-3.39h0.1c13.11-13.2 21.71-36.5 21.71-62.9 0.27-32.55 13.87-72.13 46.92-74.4 32.24 2 46.52 40.38 46.92 74.4-0.24 34.19 17.67 81.42 55.22 73.3h0.1q2.38-0.74 4.64-1.77 2.27-1.03 4.38-2.35 2.12-1.32 4.04-2.89 1.93-1.58 3.64-3.39h0.1c13.11-13.2 21.71-36.5 21.71-62.9 0.27-32.55 13.87-72.13 46.92-74.4 32.24 2 46.51 40.38 46.92 74.4-0.25 34.19 17.67 81.42 55.21 73.3h0.1q2.39-0.73 4.66-1.76 2.27-1.04 4.39-2.36 2.12-1.32 4.05-2.9 1.92-1.58 3.63-3.4h0.11c13.11-13.2 21.71-36.5 21.71-62.9 0.26-32.55 13.85-72.13 46.91-74.4 32.24 2 46.51 40.38 46.92 74.4-0.25 34.19 17.67 81.42 55.21 73.3h0.1q2.39-0.73 4.65-1.76 2.27-1.03 4.39-2.35 2.11-1.32 4.04-2.9 1.92-1.57 3.63-3.39h0.11c33.22-34.2 11.33-78.72 35.51-115.5 10.15-16.15 24.93-25.22 41.52-20.6 27.01 9.74 37.65 40.2 38.51 73.2-0.25 34.19 17.68 81.42 55.22 73.3h0.1c6.38-1.75 12.01-5.66 16.71-10.4h0.1c33.22-34.2 11.33-78.72 35.51-115.5 10.15-16.15 24.93-25.22 41.52-20.6 27.01 9.74 37.65 40.2 38.51 73.2-0.25 34.19 17.68 81.42 55.22 73.3h0.1c6.38-1.75 12.01-5.66 16.71-10.4h0.1c13.1-13.2 21.71-36.5 21.71-62.9 0.27-32.23 14-72.38 46.91-74.4 32.22 2 46.52 40.39 46.92 74.4 0.28 32.44 13.87 72.46 46.92 74.5 9.58 0.09 18.48-4.78 25.11-11.6h0.1c13.1-13.2 21.7-36.5 21.7-62.9 0.27-32.23 14.01-72.38 46.92-74.4 32.22 2 46.52 40.39 46.92 74.4 0.28 32.44 13.88 72.46 46.92 74.5 9.58 0.09 18.48-4.78 25.1-11.6h0.1c13.11-13.2 21.71-36.5 21.71-62.9 0.24-32.24 14.01-72.37 46.92-74.4 32.22 2 46.52 40.39 46.92 74.4 0.28 32.44 13.88 72.46 46.91 74.5 9.59 0.09 18.49-4.78 25.11-11.6h0.1c13.11-13.2 21.71-36.5 21.71-62.9 0.24-32.24 14.01-72.37 46.92-74.4 32.23 2 46.52 40.39 46.92 74.4 0.28 32.44 13.88 72.46 46.91 74.5 9.68 0.12 18.43-4.86 25.21-11.6 13.11-13.2 21.71-36.5 21.71-62.9 0.24-32.24 14.06-72.37 46.92-74.4 32.01 1.79 46.62 40.58 46.91 74.4 0.28 32.44 13.89 72.46 46.92 74.5 9.68 0.12 18.43-4.86 25.21-11.6 13.11-13.2 21.71-36.5 21.71-62.9 0.22-32.24 14.11-72.36 46.92-74.4 32.01 1.79 46.62 40.59 46.91 74.4 0.29 32.44 13.89 72.46 46.92 74.5 9.67 0.12 18.43-4.86 25.21-11.6 13.1-13.2 21.71-36.5 21.71-62.9 0.22-32.24 14.11-72.36 46.92-74.4 32.01 1.78 46.62 40.6 46.91 74.4 0.29 32.44 13.89 72.46 46.92 74.5 9.67 0.12 18.43-4.86 25.21-11.6h0.3c6.3-6.6 11.6-15.7 15.4-26.5 5.21-10.8 6.91-23.2 5.81-36.4-0.7-10.2-0.2-20 0.1-28.9 0.55-16.52 1.45-32.27-4.8-45.5 20.45 22.64 47.93 33.77 74.92 53.1 16.91 11.64 34.72 23 52.72 15 21.46-12 24.14-46.54 20.31-70.1-10.58-25.56-40.49-35.41-73.03-36.2-20.61 0-39.21-5-52.72-13.1-23.34-13.42-29.56-38.49-10.1-55.9 34.11-31.74 78.9-11 115.54-34 17.5-10.51 26.74-26.69 19.11-43.8-12.94-23.3-39.51-31.93-71.83-32.9-20.61 0-39.21-5-52.72-13.1-18.95-11.28-28.28-30.33-16.8-47.9 14.25-20 38.48-27.92 69.52-28.8 20.61 0 39.22-5.1 52.72-13.2 17.5-10.52 26.74-26.68 19.11-43.8-13.01-23.34-39.5-31.9-71.83-32.9-33.01 0.34-81.58-16.49-73.32-52.9v-0.1c10.09-26.11 40.62-36.09 73.32-36.9 20.61 0 39.22-5 52.72-13.1 17.5-10.62 26.74-26.65 19.11-43.8-12.94-23.29-39.52-31.93-71.83-32.9-32.82 0.38-81.63-16.6-73.32-52.9v-0.1c10.1-26.13 40.61-36.08 73.32-36.9 33.12 0.26 81.48-16.32 73.33-52.9v-0.1c-9.88-25.86-40.91-36.08-73.33-36.8-20.61 0-39.21-5-52.72-13.2-17.38-10.48-26.77-26.63-19.1-43.8 13.16-23.42 39.29-31.85 71.82-32.9 33.11 0.25 81.49-16.31 73.33-52.9v-0.1c-9.87-25.87-40.91-36.08-73.33-36.8-20.61 0-39.21-5.1-52.72-13.2-23.42-13.42-29.56-38.31-10.1-55.9 34.01-31.71 79.03-11 115.54-33.9 23.5-13.43 29.47-38.52 10.11-56v0.1c-13.21-12.5-36.42-20.8-62.83-20.8-31.82-0.33-72.1-12.77-74.52-45 2.22-31.25 41.21-44.55 74.52-44.9 31.55-0.2 72.37-12.9 74.53-44.9 0-9.39-4.92-17.87-11.7-24.2v0.1c-33.93-31.87-79.03-11.1-115.55-34-23.36-13.32-29.55-38.52-10.1-55.9 34.01-31.71 78.96-11 115.54-34 23.52-13.29 29.47-38.49 10.11-55.9-34.02-31.72-79.03-11-115.55-33.9-23.34-13.41-29.56-38.5-10.1-55.9 34.06-31.72 78.94-11 115.54-34 23.43-13.24 29.51-38.57 10.11-55.9-13.21-12.5-36.42-20.8-62.83-20.8-32.94 0.36-81.6-16.51-73.32-52.9v-0.1c9.88-25.86 40.9-36.08 73.32-36.8 20.61 0 39.22-5.1 52.72-13.2 17.5-10.62 26.74-26.65 19.11-43.8-12.94-23.3-39.52-31.93-71.83-32.9-32.82 0.38-81.63-16.6-73.32-52.9v-0.1c10.09-26.12 40.62-36.09 73.32-36.9 20.61 0 39.22-5 52.72-13.1 23.41-13.36 29.54-38.55 10.11-55.9v0.9c-6.61-6.4-15.71-11.7-26.41-15.4-10.81-5.2-23.21-6.9-36.42-5.8-10.3 0.7-20.1 0.2-29.01-0.1-16.37-0.6-32.34-1.51-45.51 4.8q1.52-1.4 3.01-2.84 1.48-1.44 2.92-2.93 1.44-1.49 2.83-3.02 1.4-1.54 2.74-3.11c14.95-17.85 26.07-41.11 41.61-63 7.41-10.3 13.11-20.1 15.81-29 12.17-36.65-32.13-47.87-61.42-45.2q-1.19 0.07-2.37 0.17-1.18 0.11-2.36 0.26-1.17 0.15-2.34 0.35-1.17 0.19-2.34 0.42-2.2 0.77-4.29 1.81-2.1 1.04-4.04 2.33-1.95 1.29-3.73 2.81-1.77 1.52-3.34 3.25"/>
				</g>
			</g>
		</g>
	</g>
</svg>